#N canvas 77 31 798 574 10;
#X declare -path bin;
#X declare -path bin64;
#X msg 626 449 \; pd dsp 1;
#X msg 703 450 \; pd dsp 0;
#X obj 215 494 hsl 128 15 0 1 0 1 empty empty output-level 20 8 0 10
-262144 -260097 -1 3900 1;
#X floatatom 225 520 5 0 0 0 - - -;
#X obj 20 391 bng 30 250 50 0 \$0-playbackslider empty empty 17 7 0
10 -262144 -1 -1;
#X obj 20 430 tabplay~ \$0-ipokebuf;
#X obj 373 25 hsl 395 15 0 395 0 0 empty \$0-slider rec/play-200000-samples
20 8 0 10 -262144 -260097 -1 0 1;
#X obj 259 176 r~ \$0-index;
#X msg 84 244 1;
#X obj 218 98 r~ \$0-input;
#N canvas 794 113 316 390 writespeed 0;
#X obj 30 -52 inlet;
#X obj 212 -25 samplerate~;
#X obj 30 242 line~;
#X msg 30 215 0 \, 200000 \$1;
#X msg 136 216 0 \, 395 \$1;
#X obj 136 294 s \$0-slider;
#X obj 30 294 s~ \$0-index;
#X msg 212 30 200000;
#X obj 212 3 t b f;
#X obj 212 56 /;
#X floatatom 212 112 5 0 0 0 - - -;
#X obj 212 82 * 1000;
#X obj 212 -51 loadbang;
#X obj 30 127 /;
#X obj 30 99 f;
#X obj 30 71 t b f;
#X floatatom 136 144 10 0 0 0 - - -;
#X obj 231 294 s \$0-draw;
#X obj 136 267 int;
#X obj 136 242 line 0 5;
#X obj 30 -22 t f b;
#X obj 231 216 + 50;
#X obj 231 252 delay;
#X text 202 145 milliseconds;
#X obj 44 48 s \$0-speed;
#N canvas 0 22 323 272 clear 0;
#X obj 65 145 s \$0-ipokebuf;
#X msg 41 77 const 0;
#X text 94 76 clear;
#X obj 41 29 inlet;
#X obj 41 178 s \$0-ipokezoombuf;
#X obj 161 94 s \$0-osczoombuf;
#X obj 157 179 s \$0-pokezoombuf;
#X obj 157 145 s \$0-pokebuf;
#X connect 1 0 0 0;
#X connect 1 0 4 0;
#X connect 1 0 5 0;
#X connect 1 0 7 0;
#X connect 1 0 6 0;
#X connect 3 0 1 0;
#X restore 57 23 pd clear;
#X connect 0 0 20 0;
#X connect 1 0 8 0;
#X connect 2 0 6 0;
#X connect 3 0 2 0;
#X connect 4 0 19 0;
#X connect 7 0 9 0;
#X connect 8 0 7 0;
#X connect 8 1 9 1;
#X connect 9 0 11 0;
#X connect 11 0 10 0;
#X connect 11 0 14 1;
#X connect 12 0 1 0;
#X connect 13 0 4 0;
#X connect 13 0 3 0;
#X connect 13 0 16 0;
#X connect 13 0 21 0;
#X connect 14 0 13 0;
#X connect 15 0 14 0;
#X connect 15 1 13 1;
#X connect 18 0 5 0;
#X connect 19 0 18 0;
#X connect 20 0 15 0;
#X connect 20 0 24 0;
#X connect 20 1 25 0;
#X connect 21 0 22 0;
#X connect 22 0 17 0;
#X restore 22 285 pd writespeed;
#X floatatom 23 109 5 0 0 0 - - -;
#X obj 626 423 loadbang;
#X text 54 405 [ipoke~];
#N canvas 0 22 228 393 slider 0;
#X obj 45 70 samplerate~;
#X msg 45 122 200000;
#X obj 45 95 t b f;
#X obj 45 148 /;
#X obj 45 174 * 1000;
#X obj 45 46 loadbang;
#X msg 30 225 0 \, 395 \$1;
#X obj 30 340 s \$0-slider;
#X obj 122 340 s \$0-draw;
#X obj 122 316 sel 1;
#X obj 30 273 int;
#X obj 122 290 == 393;
#X obj 30 251 line 0 5;
#X obj 30 20 r \$0-playbackslider;
#X obj 30 199 f;
#X floatatom 58 200 5 0 0 0 - - -;
#X connect 0 0 2 0;
#X connect 1 0 3 0;
#X connect 2 0 1 0;
#X connect 2 1 3 1;
#X connect 3 0 4 0;
#X connect 4 0 14 1;
#X connect 4 0 15 0;
#X connect 5 0 0 0;
#X connect 6 0 12 0;
#X connect 9 0 8 0;
#X connect 10 0 7 0;
#X connect 10 0 11 0;
#X connect 11 0 9 0;
#X connect 12 0 10 0;
#X connect 13 0 14 0;
#X connect 14 0 6 0;
#X restore 257 25 pd slider;
#X obj 371 78 cnv 15 400 100 empty empty empty 20 12 0 14 -233017 -66577
0;
#X obj 371 312 cnv 15 400 100 empty empty empty 20 12 0 14 -233017
-66577 0;
#N canvas 0 22 450 300 (subpatch) 0;
#X array \$0-ipokezoombuf 400 float 2;
#X coords 0 1 400 -1 400 100 1;
#X restore 371 78 graph;
#N canvas 0 22 450 300 (subpatch) 0;
#X array \$0-osczoombuf 400 float 2;
#X coords 0 1 400 -1 400 100 1;
#X restore 371 312 graph;
#N canvas 334 344 443 396 zoom 0;
#X obj 169 162 until;
#X msg 169 135 400;
#X obj 169 217 f;
#X obj 195 216 + 1;
#X msg 184 191 0;
#X obj 55 326 tabread \$0-ipokebuf;
#X obj 55 356 tabwrite \$0-ipokezoombuf;
#X obj 169 283 +;
#X obj 169 250 t f f;
#X obj 169 102 t b b f;
#X obj 169 23 r \$0-zoomslider;
#X obj 169 79 f;
#X obj 178 49 r \$0-draw;
#X obj 284 86 tabwrite~ \$0-osczoombuf;
#X obj 284 53 osc~;
#X obj 284 24 r \$0-frequency2;
#X obj 232 326 tabread \$0-pokebuf;
#X obj 232 356 tabwrite \$0-pokezoombuf;
#X connect 0 0 2 0;
#X connect 1 0 0 0;
#X connect 2 0 3 0;
#X connect 2 0 8 0;
#X connect 3 0 2 1;
#X connect 4 0 2 1;
#X connect 5 0 6 0;
#X connect 7 0 5 0;
#X connect 7 0 16 0;
#X connect 8 0 7 0;
#X connect 8 1 6 1;
#X connect 8 1 17 1;
#X connect 9 0 1 0;
#X connect 9 1 4 0;
#X connect 9 2 7 1;
#X connect 10 0 11 0;
#X connect 11 0 9 0;
#X connect 12 0 11 0;
#X connect 12 0 13 0;
#X connect 14 0 13 0;
#X connect 15 0 14 0;
#X connect 16 0 17 0;
#X restore 371 425 pd zoom;
#X obj 237 127 tgl 15 1 empty empty empty 17 7 0 10 -262144 -1 -1 1
1;
#X msg 237 150 interp \$1;
#X obj 218 204 ipoke~ \$0-ipokebuf;
#X text 482 61 400 samples;
#X msg 117 244 1.1;
#X obj 173 395 tgl 25 0 empty empty empty 17 7 0 10 -262144 -1 -1 0
1;
#N canvas 287 22 339 275 play-osc 0;
#X obj 218 102 r \$0-frequency;
#X obj 203 28 r \$0-speed;
#X obj 203 155 /;
#X obj 203 131 f;
#X obj 203 62 t b f;
#X obj 215 209 s \$0-frequency2;
#X floatatom 215 182 5 0 0 0 - - -;
#X floatatom 234 131 5 0 0 0 - - -;
#X obj 18 92 osc~;
#X obj 18 31 r \$0-frequency2;
#X obj 18 119 *~ 0;
#X obj 130 31 inlet;
#X obj 18 242 outlet~;
#X obj 203 245 outlet;
#X connect 0 0 3 1;
#X connect 0 0 7 0;
#X connect 1 0 4 0;
#X connect 2 0 6 0;
#X connect 2 0 5 0;
#X connect 2 0 13 0;
#X connect 3 0 2 0;
#X connect 4 0 3 0;
#X connect 4 1 2 1;
#X connect 8 0 10 0;
#X connect 9 0 8 0;
#X connect 10 0 12 0;
#X connect 11 0 10 1;
#X restore 173 431 pd play-osc;
#X floatatom 236 457 8 0 0 0 - - -;
#X text 203 398 [osc~];
#X msg 52 244 0.9;
#X text 21 20 1 - select input frequency:;
#X text 19 211 2 - click a speed to write:;
#X msg 183 244 7;
#X obj 23 145 table \$0-ipokebuf 200000;
#X obj 371 195 cnv 15 400 100 empty empty empty 20 12 0 14 -233017
-66577 0;
#N canvas 0 22 450 300 (subpatch) 0;
#X array \$0-pokezoombuf 400 float 2;
#X coords 0 1 400 -1 400 100 1;
#X restore 371 195 graph;
#N canvas 685 91 283 214 sinewave 0;
#X obj 33 134 osc~ 200;
#X obj 33 162 s~ \$0-input;
#X obj 33 96 f;
#X obj 33 38 inlet;
#X obj 124 163 outlet;
#X obj 124 113 s \$0-frequency;
#X obj 33 66 int;
#X connect 0 0 1 0;
#X connect 2 0 0 0;
#X connect 2 0 4 0;
#X connect 2 0 5 0;
#X connect 3 0 6 0;
#X connect 6 0 2 0;
#X restore 23 82 pd sinewave;
#X obj 23 170 table \$0-pokebuf 200000;
#X obj 218 271 r~ \$0-input;
#X obj 288 302 r~ \$0-index;
#N canvas 0 22 184 195 dac~ 0;
#X obj 27 41 inlet~;
#X obj 27 78 hip~ 20;
#X obj 27 141 dac~;
#X obj 27 109 *~ 0;
#X obj 86 41 inlet;
#X connect 0 0 1 0;
#X connect 1 0 3 0;
#X connect 3 0 2 0;
#X connect 3 0 2 1;
#X connect 4 0 3 1;
#X restore 173 520 pd dac~;
#X text 291 457 playback frequency;
#X obj 20 464 bng 30 250 50 0 \$0-playbackslider empty empty 17 7 0
10 -262144 -1 -1;
#X obj 20 503 tabplay~ \$0-pokebuf;
#X text 54 479 [poke~];
#X obj 26 51 hsl 128 15 50 5000 1 1 empty empty frequency 20 8 0 10
-262144 -260097 -1 8100 0;
#X text 57 112 Hz;
#X msg 22 244 0.3;
#X msg 151 244 1.4;
#X text 362 507 Test patch comparing a sinewave written by [ipoke~]
and [poke~] with a sinewave directly from [osc~].;
#X text 20 364 3 - compare results with [osc~]:;
#N canvas 0 22 420 192 searchpatch 0;
#X obj 36 95 declare -path bin;
#X obj 36 129 declare -path bin64;
#X text 34 31 Find path to [ipoke~] executables. If you want to use
[ipoke~] in your own patches \, copy or move the executable for your
platform in Pd's 'extra' directory.;
#X restore 489 462 pd searchpatch;
#X obj 218 330 cyclone/poke~ \$0-pokebuf;
#X connect 2 0 3 0;
#X connect 2 0 40 1;
#X connect 4 0 5 0;
#X connect 5 0 40 0;
#X connect 7 0 22 1;
#X connect 8 0 10 0;
#X connect 9 0 22 0;
#X connect 12 0 0 0;
#X connect 20 0 21 0;
#X connect 21 0 22 0;
#X connect 24 0 10 0;
#X connect 25 0 26 0;
#X connect 26 0 40 0;
#X connect 26 1 27 0;
#X connect 29 0 10 0;
#X connect 32 0 10 0;
#X connect 36 0 11 0;
#X connect 38 0 52 0;
#X connect 39 0 52 1;
#X connect 42 0 43 0;
#X connect 43 0 40 0;
#X connect 45 0 36 0;
#X connect 47 0 10 0;
#X connect 48 0 10 0;
