#N canvas 88 26 667 707 10;
#X declare -path bin;
#X declare -path bin64;
#X obj 217 54 ipoke~-abstraction;
#X obj 322 22 r~ \$0-index;
#X obj 29 24 hsl 128 15 0 2 0 1 empty empty input-gain 20 8 0 10 -262144
-260097 -1 6300 1;
#X floatatom 26 88 5 0 0 0 - - -;
#N canvas 572 171 217 211 adc 0;
#X obj 60 13 inlet;
#X obj 39 48 *~ 1;
#X obj 39 129 s~ \$0-input;
#X obj 18 13 adc~;
#X obj 123 130 outlet;
#X obj 123 100 env~ 16384;
#X connect 0 0 1 1;
#X connect 1 0 2 0;
#X connect 1 0 5 0;
#X connect 3 0 1 0;
#X connect 3 1 1 0;
#X connect 5 0 4 0;
#X restore 26 57 pd adc;
#X obj 217 22 r~ \$0-input;
#X msg 52 199 1;
#X msg 64 227 2.5;
#X msg 75 257 7;
#X msg 40 174 0.6;
#X msg 28 150 0.3;
#X obj 217 121 ipoke~-abstraction;
#X obj 322 89 r~ \$0-index;
#X obj 217 89 r~ \$0-input;
#X obj 218 185 ipoke~-abstraction;
#X obj 323 153 r~ \$0-index;
#X obj 218 153 r~ \$0-input;
#X obj 218 252 ipoke~-abstraction;
#X obj 323 220 r~ \$0-index;
#X obj 218 220 r~ \$0-input;
#X obj 218 319 ipoke~-abstraction;
#X obj 323 287 r~ \$0-index;
#X obj 218 287 r~ \$0-input;
#X obj 434 56 ipoke~-abstraction;
#X obj 539 24 r~ \$0-index;
#X obj 434 24 r~ \$0-input;
#X obj 434 123 ipoke~-abstraction;
#X obj 539 91 r~ \$0-index;
#X obj 434 91 r~ \$0-input;
#X obj 435 187 ipoke~-abstraction;
#X obj 540 155 r~ \$0-index;
#X obj 435 155 r~ \$0-input;
#X obj 435 254 ipoke~-abstraction;
#X obj 540 222 r~ \$0-index;
#X obj 435 222 r~ \$0-input;
#X obj 435 321 ipoke~-abstraction;
#X obj 540 289 r~ \$0-index;
#X obj 435 289 r~ \$0-input;
#N canvas 962 31 207 254 Hz 0;
#X obj 32 23 inlet;
#X obj 114 83 samplerate~;
#X floatatom 114 142 5 0 0 0 - - -;
#X obj 114 25 loadbang;
#X obj 32 184 outlet;
#X obj 114 109 / 88200;
#X obj 87 184 outlet;
#X text 87 205 speed;
#X text 31 205 Hz;
#X obj 32 126 * 1;
#X connect 0 0 6 0;
#X connect 0 0 9 0;
#X connect 1 0 5 0;
#X connect 3 0 1 0;
#X connect 5 0 2 0;
#X connect 5 0 9 1;
#X connect 9 0 4 0;
#X restore 28 325 pd Hz;
#X obj 28 376 phasor~ 0.5;
#X obj 28 432 s~ \$0-index;
#X obj 28 406 *~ 44100;
#X floatatom 55 349 5 0 0 0 - - -;
#X text 92 350 speed;
#X obj 218 386 ipoke~-abstraction;
#X obj 323 354 r~ \$0-index;
#X obj 218 354 r~ \$0-input;
#X obj 218 453 ipoke~-abstraction;
#X obj 323 421 r~ \$0-index;
#X obj 218 421 r~ \$0-input;
#X obj 219 517 ipoke~-abstraction;
#X obj 324 485 r~ \$0-index;
#X obj 219 485 r~ \$0-input;
#X obj 219 584 ipoke~-abstraction;
#X obj 324 552 r~ \$0-index;
#X obj 219 552 r~ \$0-input;
#X obj 219 651 ipoke~-abstraction;
#X obj 324 619 r~ \$0-index;
#X obj 219 619 r~ \$0-input;
#X obj 435 388 ipoke~-abstraction;
#X obj 540 356 r~ \$0-index;
#X obj 435 356 r~ \$0-input;
#X obj 435 455 ipoke~-abstraction;
#X obj 540 423 r~ \$0-index;
#X obj 435 423 r~ \$0-input;
#X obj 436 519 ipoke~-abstraction;
#X obj 541 487 r~ \$0-index;
#X obj 436 487 r~ \$0-input;
#X obj 436 586 ipoke~-abstraction;
#X obj 541 554 r~ \$0-index;
#X obj 436 554 r~ \$0-input;
#X obj 436 653 ipoke~-abstraction;
#X obj 541 621 r~ \$0-index;
#X obj 436 621 r~ \$0-input;
#X text 27 517 20 [ipoke~] objects;
#X msg 79 288 100;
#X text 25 128 select speed:;
#X obj 107 182 loadbang;
#N canvas 0 22 420 192 searchpatch 0;
#X obj 36 95 declare -path bin;
#X obj 36 129 declare -path bin64;
#X text 34 31 Find path to [ipoke~] executables. If you want to use
[ipoke~] in your own patches \, copy or move the executable for your
platform in Pd's 'extra' directory.;
#X restore 31 572 pd searchpatch;
#X connect 1 0 0 1;
#X connect 2 0 4 0;
#X connect 4 0 3 0;
#X connect 5 0 0 0;
#X connect 6 0 38 0;
#X connect 7 0 38 0;
#X connect 8 0 38 0;
#X connect 9 0 38 0;
#X connect 10 0 38 0;
#X connect 12 0 11 1;
#X connect 13 0 11 0;
#X connect 15 0 14 1;
#X connect 16 0 14 0;
#X connect 18 0 17 1;
#X connect 19 0 17 0;
#X connect 21 0 20 1;
#X connect 22 0 20 0;
#X connect 24 0 23 1;
#X connect 25 0 23 0;
#X connect 27 0 26 1;
#X connect 28 0 26 0;
#X connect 30 0 29 1;
#X connect 31 0 29 0;
#X connect 33 0 32 1;
#X connect 34 0 32 0;
#X connect 36 0 35 1;
#X connect 37 0 35 0;
#X connect 38 0 39 0;
#X connect 38 1 42 0;
#X connect 39 0 41 0;
#X connect 41 0 40 0;
#X connect 45 0 44 1;
#X connect 46 0 44 0;
#X connect 48 0 47 1;
#X connect 49 0 47 0;
#X connect 51 0 50 1;
#X connect 52 0 50 0;
#X connect 54 0 53 1;
#X connect 55 0 53 0;
#X connect 57 0 56 1;
#X connect 58 0 56 0;
#X connect 60 0 59 1;
#X connect 61 0 59 0;
#X connect 63 0 62 1;
#X connect 64 0 62 0;
#X connect 66 0 65 1;
#X connect 67 0 65 0;
#X connect 69 0 68 1;
#X connect 70 0 68 0;
#X connect 72 0 71 1;
#X connect 73 0 71 0;
#X connect 75 0 38 0;
#X connect 77 0 6 0;
