#N canvas 65 29 766 566 10;
#X declare -path bin;
#X declare -path bin64;
#X msg 668 409 \; pd dsp 1;
#X msg 669 456 \; pd dsp 0;
#N canvas 0 22 450 300 (subpatch) 0;
#X array \$0-ipokebuf 200000 float 2;
#X coords 0 1 200000 -1 400 140 1;
#X restore 348 31 graph;
#X obj 20 28 hsl 128 15 0 2 0 1 empty empty input-gain 20 8 0 10 -262144
-260097 -1 6300 1;
#X obj 194 487 hsl 128 15 0 1 0 1 empty empty output-level 20 8 0 10
-262144 -260097 -1 2600 0;
#X floatatom 203 520 5 0 0 0 - - -;
#X obj 20 391 bng 30 250 50 0 \$0-playbackslider empty empty 17 7 0
10 -262144 -1 -1;
#X obj 210 132 ipoke~ \$0-ipokebuf;
#X obj 20 430 tabplay~ \$0-ipokebuf;
#N canvas 0 22 450 300 (subpatch) 0;
#X array \$0-pokebuf 200000 float 2;
#X coords 0 1 200000 -1 400 140 1;
#X restore 348 214 graph;
#X obj 351 183 hsl 395 15 0 395 0 0 empty \$0-slider empty -2 -8 0
10 -262144 -260097 -1 0 1;
#X obj 252 87 r~ \$0-index;
#X msg 44 220 1;
#X obj 210 29 r~ \$0-input;
#X obj 259 267 r~ \$0-index;
#X obj 189 212 r~ \$0-input;
#X obj 152 391 bng 30 250 50 0 \$0-playbackslider empty empty 17 7
0 10 -262144 -1 -1;
#X obj 152 430 tabplay~ \$0-pokebuf;
#N canvas 764 48 389 400 writespeed 0;
#X obj 30 -52 inlet;
#X obj 212 -25 samplerate~;
#X obj 30 242 line~;
#X msg 30 215 0 \, 200000 \$1;
#X msg 136 216 0 \, 395 \$1;
#X obj 136 294 s \$0-slider;
#X obj 30 294 s~ \$0-index;
#X msg 212 30 200000;
#X obj 212 3 t b f;
#X obj 212 56 /;
#X floatatom 212 112 5 0 0 0 - - -;
#X obj 212 82 * 1000;
#X obj 212 -51 loadbang;
#X obj 30 127 /;
#X obj 30 99 f;
#X obj 30 71 t b f;
#X floatatom 136 144 10 0 0 0 - - -;
#X obj 231 294 s \$0-draw;
#X obj 136 267 int;
#X obj 136 242 line 0 5;
#X obj 101 42 s \$0-pokebuf;
#X obj 86 72 s \$0-ipokebuf;
#X obj 30 -22 t f b;
#X msg 86 9 arrayviewclose;
#X obj 231 216 + 50;
#X obj 231 252 delay;
#X text 202 145 milliseconds;
#X connect 0 0 22 0;
#X connect 1 0 8 0;
#X connect 2 0 6 0;
#X connect 3 0 2 0;
#X connect 4 0 19 0;
#X connect 7 0 9 0;
#X connect 8 0 7 0;
#X connect 8 1 9 1;
#X connect 9 0 11 0;
#X connect 11 0 10 0;
#X connect 11 0 14 1;
#X connect 12 0 1 0;
#X connect 13 0 4 0;
#X connect 13 0 3 0;
#X connect 13 0 16 0;
#X connect 13 0 24 0;
#X connect 14 0 13 0;
#X connect 15 0 14 0;
#X connect 15 1 13 1;
#X connect 18 0 5 0;
#X connect 19 0 18 0;
#X connect 22 0 15 0;
#X connect 22 1 23 0;
#X connect 23 0 21 0;
#X connect 23 0 20 0;
#X connect 24 0 25 0;
#X connect 25 0 17 0;
#X restore 20 329 pd writespeed;
#X floatatom 17 107 5 0 0 0 - - -;
#N canvas 572 171 217 211 adc 0;
#X obj 60 13 inlet;
#X obj 39 48 *~ 1;
#X obj 123 100 env~ 8192;
#X obj 39 129 s~ \$0-input;
#X obj 18 13 adc~;
#X obj 123 130 outlet;
#X connect 0 0 1 1;
#X connect 1 0 2 0;
#X connect 1 0 3 0;
#X connect 2 0 5 0;
#X connect 4 0 1 0;
#X connect 4 1 1 0;
#X restore 17 76 pd adc;
#X obj 223 57 r \$0-draw;
#X obj 210 238 r \$0-draw;
#X obj 668 377 loadbang;
#X text 54 396 [ipoke~];
#X text 18 141 1 - click a speed to write:;
#X text 20 364 2 - compare results:;
#X msg 56 248 2.5;
#X msg 67 274 7;
#X obj 363 430 s \$0-pokebuf;
#X obj 350 462 s \$0-ipokebuf;
#X msg 350 398 const 0;
#X text 403 397 clear;
#X msg 32 195 0.6;
#X msg 20 171 0.3;
#N canvas 0 22 228 393 slider 0;
#X obj 45 70 samplerate~;
#X msg 45 122 200000;
#X obj 45 95 t b f;
#X obj 45 148 /;
#X obj 45 174 * 1000;
#X obj 45 46 loadbang;
#X msg 30 225 0 \, 395 \$1;
#X obj 30 340 s \$0-slider;
#X obj 122 340 s \$0-draw;
#X obj 122 316 sel 1;
#X obj 30 273 int;
#X obj 122 290 == 393;
#X obj 30 251 line 0 5;
#X obj 30 20 r \$0-playbackslider;
#X obj 30 199 f;
#X floatatom 58 200 5 0 0 0 - - -;
#X connect 0 0 2 0;
#X connect 1 0 3 0;
#X connect 2 0 1 0;
#X connect 2 1 3 1;
#X connect 3 0 4 0;
#X connect 4 0 14 1;
#X connect 4 0 15 0;
#X connect 5 0 0 0;
#X connect 6 0 12 0;
#X connect 9 0 8 0;
#X connect 10 0 7 0;
#X connect 10 0 11 0;
#X connect 11 0 9 0;
#X connect 12 0 10 0;
#X connect 13 0 14 0;
#X connect 14 0 6 0;
#X restore 21 478 pd slider;
#X msg 465 400 arrayviewlistnew;
#X obj 478 430 s \$0-pokebuf;
#X obj 465 460 s \$0-ipokebuf;
#X text 572 398 open lists;
#X msg 77 302 100;
#X obj 152 460 hip~ 20;
#N canvas 0 22 420 192 searchpatch 0;
#X obj 36 95 declare -path bin;
#X obj 36 129 declare -path bin64;
#X text 34 31 Find path to [ipoke~] executables. If you want to use
[ipoke~] in your own patches \, copy or move the executable for your
platform in Pd's 'extra' directory.;
#X restore 25 521 pd searchpatch;
#X obj 189 298 cyclone/poke~ \$0-pokebuf;
#N canvas 0 22 180 176 dac~ 0;
#X obj 18 34 inlet~;
#X obj 18 102 dac~;
#X obj 18 70 *~ 0;
#X obj 78 34 inlet;
#X connect 0 0 2 0;
#X connect 2 0 1 0;
#X connect 2 0 1 1;
#X connect 3 0 2 1;
#X restore 152 519 pd dac~;
#X floatatom 28 53 5 0 0 0 - - -;
#X text 190 397 [cyclone/poke~];
#X text 349 503 Test patch comparing [ipoke~] with [cyclone/poke~].
Note that [poke~] may skip index positions \, and some of the old values
are preserved (at speeds >1).;
#X connect 3 0 20 0;
#X connect 3 0 45 0;
#X connect 4 0 5 0;
#X connect 4 0 44 1;
#X connect 6 0 8 0;
#X connect 8 0 41 0;
#X connect 11 0 7 1;
#X connect 12 0 18 0;
#X connect 13 0 7 0;
#X connect 14 0 43 1;
#X connect 15 0 43 0;
#X connect 16 0 17 0;
#X connect 17 0 41 0;
#X connect 20 0 19 0;
#X connect 21 0 7 0;
#X connect 22 0 43 0;
#X connect 23 0 0 0;
#X connect 27 0 18 0;
#X connect 28 0 18 0;
#X connect 31 0 30 0;
#X connect 31 0 29 0;
#X connect 33 0 18 0;
#X connect 34 0 18 0;
#X connect 36 0 38 0;
#X connect 36 0 37 0;
#X connect 40 0 18 0;
#X connect 41 0 44 0;
