#N canvas 61 35 777 587 10;
#X declare -path bin;
#X declare -path bin64;
#X msg 613 449 \; pd dsp 1;
#X msg 683 449 \; pd dsp 0;
#X obj 20 28 hsl 128 15 0 2 0 1 empty empty input-gain 20 8 0 10 -262144
-260097 -1 6300 1;
#X obj 194 519 hsl 128 15 0 1 0 1 empty empty output-level 20 8 0 10
-262144 -260097 -1 5300 1;
#X floatatom 206 548 5 0 0 0 - - -;
#X obj 20 394 bng 30 250 50 0 \$0-playbackslider empty empty 17 7 0
10 -262144 -1 -1;
#X obj 20 433 tabplay~ \$0-ipokebuf;
#X obj 351 139 hsl 395 15 0 395 0 0 empty \$0-slider empty -2 -8 0
10 -262144 -260097 -1 0 1;
#X obj 251 136 r~ \$0-index;
#X msg 45 212 1;
#X obj 210 29 r~ \$0-input;
#X obj 240 269 r~ \$0-index;
#X obj 170 212 r~ \$0-input;
#X obj 152 394 bng 30 250 50 0 \$0-playbackslider empty empty 17 7
0 10 -262144 -1 -1;
#X obj 152 433 tabplay~ \$0-pokebuf;
#N canvas 764 48 405 394 writespeed 0;
#X obj 30 -52 inlet;
#X obj 212 -25 samplerate~;
#X obj 30 242 line~;
#X msg 30 215 0 \, 200000 \$1;
#X msg 136 216 0 \, 395 \$1;
#X obj 136 294 s \$0-slider;
#X obj 30 294 s~ \$0-index;
#X msg 212 30 200000;
#X obj 212 3 t b f;
#X obj 212 56 /;
#X floatatom 212 112 5 0 0 0 - - -;
#X obj 212 82 * 1000;
#X obj 212 -51 loadbang;
#X obj 30 127 /;
#X obj 30 99 f;
#X obj 30 71 t b f;
#X floatatom 136 144 10 0 0 0 - - -;
#X obj 231 294 s \$0-draw;
#X obj 136 267 int;
#X obj 136 242 line 0 5;
#X obj 30 -22 t f b;
#X obj 231 216 + 50;
#X obj 231 252 delay;
#X text 202 145 milliseconds;
#N canvas 0 22 323 272 clear&close 0;
#X obj 56 113 s \$0-pokebuf;
#X obj 41 143 s \$0-ipokebuf;
#X msg 41 80 arrayviewclose;
#X obj 206 118 s \$0-pokebuf;
#X obj 193 150 s \$0-ipokebuf;
#X msg 164 82 const 0;
#X text 217 81 clear;
#X obj 41 29 inlet;
#X obj 177 183 s \$0-pokezoombuf;
#X obj 164 215 s \$0-ipokezoombuf;
#X connect 2 0 1 0;
#X connect 2 0 0 0;
#X connect 5 0 4 0;
#X connect 5 0 3 0;
#X connect 5 0 8 0;
#X connect 5 0 9 0;
#X connect 7 0 2 0;
#X connect 7 0 5 0;
#X restore 57 24 pd clear&close;
#X connect 0 0 20 0;
#X connect 1 0 8 0;
#X connect 2 0 6 0;
#X connect 3 0 2 0;
#X connect 4 0 19 0;
#X connect 7 0 9 0;
#X connect 8 0 7 0;
#X connect 8 1 9 1;
#X connect 9 0 11 0;
#X connect 11 0 10 0;
#X connect 11 0 14 1;
#X connect 12 0 1 0;
#X connect 13 0 4 0;
#X connect 13 0 3 0;
#X connect 13 0 16 0;
#X connect 13 0 21 0;
#X connect 14 0 13 0;
#X connect 15 0 14 0;
#X connect 15 1 13 1;
#X connect 18 0 5 0;
#X connect 19 0 18 0;
#X connect 20 0 15 0;
#X connect 20 1 24 0;
#X connect 21 0 22 0;
#X connect 22 0 17 0;
#X restore 20 329 pd writespeed;
#X floatatom 17 110 5 0 0 0 - - -;
#N canvas 572 171 217 211 adc 0;
#X obj 21 15 inlet;
#X obj 0 50 *~ 1;
#X obj 84 102 env~ 8192;
#X obj 0 131 s~ \$0-input;
#X obj -21 15 adc~;
#X obj 84 132 outlet;
#X connect 0 0 1 1;
#X connect 1 0 2 0;
#X connect 1 0 3 0;
#X connect 2 0 5 0;
#X connect 4 0 1 0;
#X connect 4 1 1 0;
#X restore 17 79 pd adc;
#X obj 223 57 r \$0-draw;
#X obj 191 238 r \$0-draw;
#X obj 613 417 loadbang;
#X text 54 399 [ipoke~];
#X text 18 141 1 - click a speed to write:;
#X text 20 367 2 - compare results:;
#X msg 57 242 2.5;
#X msg 69 272 7;
#X msg 32 185 0.6;
#N canvas 0 22 228 393 slider 0;
#X obj 45 70 samplerate~;
#X msg 45 122 200000;
#X obj 45 95 t b f;
#X obj 45 148 /;
#X obj 45 174 * 1000;
#X obj 45 46 loadbang;
#X msg 30 225 0 \, 395 \$1;
#X obj 30 340 s \$0-slider;
#X obj 122 340 s \$0-draw;
#X obj 122 316 sel 1;
#X obj 30 273 int;
#X obj 122 290 == 393;
#X obj 30 251 line 0 5;
#X obj 30 20 r \$0-playbackslider;
#X obj 30 199 f;
#X floatatom 58 200 5 0 0 0 - - -;
#X connect 0 0 2 0;
#X connect 1 0 3 0;
#X connect 2 0 1 0;
#X connect 2 1 3 1;
#X connect 3 0 4 0;
#X connect 4 0 14 1;
#X connect 4 0 15 0;
#X connect 5 0 0 0;
#X connect 6 0 12 0;
#X connect 9 0 8 0;
#X connect 10 0 7 0;
#X connect 10 0 11 0;
#X connect 11 0 9 0;
#X connect 12 0 10 0;
#X connect 13 0 14 0;
#X connect 14 0 6 0;
#X restore 21 481 pd slider;
#X msg 415 416 arrayviewlistnew;
#X obj 428 441 s \$0-pokebuf;
#X obj 415 463 s \$0-ipokebuf;
#X text 522 414 open lists;
#X obj 152 463 hip~ 20;
#X obj 170 326 table \$0-pokebuf 200000;
#X obj 351 21 hsl 395 100 0 199999 0 1 \$0-zoomslider empty empty 20
8 1 10 -228856 -260097 -1 14700 0;
#X obj 349 181 cnv 15 400 100 empty empty empty 20 12 0 14 -233017
-66577 0;
#X obj 349 297 cnv 15 400 100 empty empty empty 20 12 0 14 -233017
-66577 0;
#N canvas 0 22 450 300 (subpatch) 0;
#X array \$0-ipokezoombuf 400 float 2;
#X coords 0 1 400 -1 400 100 1;
#X restore 349 181 graph;
#N canvas 0 22 450 300 (subpatch) 0;
#X array \$0-pokezoombuf 400 float 2;
#X coords 0 1 400 -1 400 100 1;
#X restore 349 297 graph;
#N canvas 0 22 450 300 (subpatch) 0;
#X array \$0-ipokebuf 200000 float 2;
#X coords 0 1 200000 -1 400 100 1;
#X restore 348 21 graph;
#N canvas 668 290 449 455 zoom 0;
#X obj 169 162 until;
#X msg 169 135 400;
#X obj 169 217 f;
#X obj 195 216 + 1;
#X msg 184 191 0;
#X obj 56 326 tabread \$0-ipokebuf;
#X obj 55 356 tabwrite \$0-ipokezoombuf;
#X obj 169 283 +;
#X obj 169 250 t f f;
#X obj 169 102 t b b f;
#X obj 169 23 r \$0-zoomslider;
#X obj 225 327 tabread \$0-pokebuf;
#X obj 225 357 tabwrite \$0-pokezoombuf;
#X obj 169 79 f;
#X obj 178 49 r \$0-draw;
#X connect 0 0 2 0;
#X connect 1 0 0 0;
#X connect 2 0 3 0;
#X connect 2 0 8 0;
#X connect 3 0 2 1;
#X connect 4 0 2 1;
#X connect 5 0 6 0;
#X connect 7 0 5 0;
#X connect 7 0 11 0;
#X connect 8 0 7 0;
#X connect 8 1 6 1;
#X connect 8 1 12 1;
#X connect 9 0 1 0;
#X connect 9 1 4 0;
#X connect 9 2 7 1;
#X connect 10 0 13 0;
#X connect 11 0 12 0;
#X connect 13 0 9 0;
#X connect 14 0 13 0;
#X restore 349 415 pd zoom;
#X obj 250 83 tgl 15 1 empty empty empty 17 7 0 10 -262144 -1 -1 1
1;
#X msg 250 106 interp \$1;
#X obj 210 164 ipoke~ \$0-ipokebuf;
#X text 430 5 200000 samples;
#X text 455 164 400 samples;
#X msg 83 302 25;
#X msg 20 159 0.1;
#X floatatom 28 52 5 0 0 0 - - -;
#X text 350 487 Test patch zooming in on buffers written with [ipoke~]
and [poke~]. All buffers are cleared before recording. Select various
speeds and input sounds to perceive the effects. Click somewhere in
\$0-ipokebuf to refill the zoom buffers. Notice the difference of [ipoke~]
with and without interpolation.;
#N canvas 0 22 420 192 searchpatch 0;
#X obj 36 95 declare -path bin;
#X obj 36 129 declare -path bin64;
#X text 34 31 Find path to [ipoke~] executables. If you want to use
[ipoke~] in your own patches \, copy or move the executable for your
platform in Pd's 'extra' directory.;
#X restore 21 526 pd searchpatch;
#N canvas 0 22 180 176 dac~ 0;
#X obj 18 34 inlet~;
#X obj 18 102 dac~;
#X obj 18 70 *~ 0;
#X obj 78 34 inlet;
#X connect 0 0 2 0;
#X connect 2 0 1 0;
#X connect 2 0 1 1;
#X connect 3 0 2 1;
#X restore 152 547 pd dac~;
#X obj 170 298 cyclone/poke~ \$0-pokebuf;
#X text 190 400 [cyclone/poke~];
#X connect 2 0 17 0;
#X connect 2 0 48 0;
#X connect 3 0 4 0;
#X connect 3 0 51 1;
#X connect 5 0 6 0;
#X connect 6 0 32 0;
#X connect 8 0 43 1;
#X connect 9 0 15 0;
#X connect 10 0 43 0;
#X connect 11 0 52 1;
#X connect 12 0 52 0;
#X connect 13 0 14 0;
#X connect 14 0 32 0;
#X connect 17 0 16 0;
#X connect 18 0 43 0;
#X connect 19 0 52 0;
#X connect 20 0 0 0;
#X connect 24 0 15 0;
#X connect 25 0 15 0;
#X connect 26 0 15 0;
#X connect 28 0 30 0;
#X connect 28 0 29 0;
#X connect 32 0 51 0;
#X connect 41 0 42 0;
#X connect 42 0 43 0;
#X connect 46 0 15 0;
#X connect 47 0 15 0;
