#N canvas 43 48 700 452 10;
#X declare -path bin;
#X declare -path bin64;
#X obj 48 62 hsl 128 15 0 2 0 1 empty empty input-gain 20 8 0 10 -262144
-260097 -1 6200 1;
#X floatatom 45 151 5 0 0 0 - - -;
#N canvas 572 171 217 211 adc 0;
#X obj 60 13 inlet;
#X obj 39 48 *~ 1;
#X obj 123 100 env~ 8192;
#X obj 39 129 s~ \$0-input;
#X obj 18 13 adc~;
#X obj 123 130 outlet;
#X connect 0 0 1 1;
#X connect 1 0 2 0;
#X connect 1 0 3 0;
#X connect 2 0 5 0;
#X connect 4 0 1 0;
#X connect 4 1 1 0;
#X restore 45 110 pd adc;
#X obj 44 187 r~ \$0-input;
#N canvas 0 22 450 300 (subpatch) 0;
#X array \$0-ipokebuf1 88200 float 2;
#X coords 0 1 88200 -1 400 140 1;
#X restore 267 77 graph;
#X obj 270 232 hsl 395 15 0 88199 0 0 empty \$0-slider empty -2 -8
0 10 -262144 -260097 -1 4920 1;
#N canvas 0 22 450 300 (subpatch) 0;
#X array \$0-ipokebuf2 88200 float 2;
#X coords 0 1 88200 -1 400 140 1;
#X restore 267 270 graph;
#X obj 155 335 phasor~ 0.5;
#X obj 155 360 *~ 88200;
#N canvas 86 205 236 256 draw 0;
#X obj 29 136 snapshot~;
#X obj 29 193 s \$0-draw;
#X obj 29 164 bang;
#X obj 50 103 metro 500;
#X obj 29 26 inlet~;
#X obj 124 138 snapshot~;
#X obj 124 165 s \$0-slider;
#X obj 124 103 metro 50;
#X obj 50 59 tgl 15 1 empty empty empty 17 7 0 10 -262144 -1 -1 1 1
;
#X connect 0 0 2 0;
#X connect 2 0 1 0;
#X connect 3 0 0 0;
#X connect 4 0 0 0;
#X connect 4 0 5 0;
#X connect 5 0 6 0;
#X connect 7 0 5 0;
#X connect 8 0 7 0;
#X connect 8 0 3 0;
#X restore 184 392 pd draw;
#X obj 44 391 ipoke~ \$0-ipokebuf1;
#X obj 68 248 symbol \$0-ipokebuf1;
#X msg 68 331 set \$1;
#X obj 87 299 symbol \$0-ipokebuf2;
#X obj 68 218 bng 15 250 50 0 empty empty empty 17 7 0 10 -262144 -1
-1;
#X obj 87 275 bng 15 250 50 0 empty empty empty 17 7 0 10 -262144 -1
-1;
#X msg 515 34 \; pd dsp 1;
#X msg 605 35 \; pd dsp 0;
#X obj 515 5 loadbang;
#X obj 68 361 r \$0-draw;
#X text 41 11 Writing to different arrays with [ipoke~].;
#X floatatom 55 87 5 0 0 0 - - -;
#N canvas 0 22 420 192 searchpatch 0;
#X obj 36 95 declare -path bin;
#X obj 36 129 declare -path bin64;
#X text 34 31 Find path to [ipoke~] executables. If you want to use
[ipoke~] in your own patches \, copy or move the executable for your
platform in Pd's 'extra' directory.;
#X restore 403 46 pd searchpatch;
#X connect 0 0 2 0;
#X connect 0 0 21 0;
#X connect 2 0 1 0;
#X connect 3 0 10 0;
#X connect 7 0 8 0;
#X connect 8 0 9 0;
#X connect 8 0 10 1;
#X connect 11 0 12 0;
#X connect 12 0 10 0;
#X connect 13 0 12 0;
#X connect 14 0 11 0;
#X connect 15 0 13 0;
#X connect 18 0 16 0;
#X connect 19 0 10 0;
