#N canvas 0 25 1680 997 12;
#X declare -path bin;
#X declare -path bin64;
#X msg 6245 669 \; pd dsp 1;
#X msg 6244 709 \; pd dsp 0;
#X obj 305 2907 hsl 128 15 0 1 0 1 empty empty output-level 20 8 0 10 #fcfcfc #fc8000 #000000 4400 0;
#X floatatom 312 2931 5 0 0 0 - - - 0;
#X obj 6245 640 loadbang;
#X obj 270 2155 hsl 300 20 -4 4 0 1 empty empty writing-and-reading-speed 100 10 0 10 #fcfcfc #fc8000 #000000 18700 0;
#X obj 789 2668 hip~ 5;
#X floatatom 338 2186 4 0 0 0 - - - 0;
#X obj 410 67 hsl 395 64 0 440832 0 0 empty \$0-slider empty -2 -8 0 10 #fcfcfc #fc8000 #000000 0 1;
#X msg 6489 690 const 0;
#X text 338 2804 direct out;
#X obj 830 2645 hsl 64 15 0 1 0 1 empty empty feedback 5 8 0 10 #fcfcfc #fc8000 #000000 4365 0;
#N canvas 1 51 420 192 searchpatch 0;
#X obj 36 95 declare -path bin;
#X obj 36 129 declare -path bin64;
#X text 34 31 Find path to [ipoke~] executables. If you want to use [ipoke~] in your own patches \, copy or move the executable for your platform in Pd's 'extra' directory.;
#X restore 2203 75 pd searchpatch;
#N canvas 0 22 180 176 dac~ 0;
#X obj 18 34 inlet~;
#X obj 18 102 dac~;
#X obj 18 70 *~ 0;
#X obj 78 34 inlet;
#X connect 0 0 2 0;
#X connect 2 0 1 0;
#X connect 2 0 1 1;
#X connect 3 0 2 1;
#X restore 256 2931 pd dac~;
#X obj 408 2501 tgl 25 1 empty empty empty 17 7 0 10 #fcfcfc #fc8000 #000000 1 1;
#X text 358 2534 draw;
#X obj 307 2802 tgl 25 1 empty empty empty 17 7 0 10 #fcfcfc #fc8000 #000000 0 0.7;
#X text 551 2911 Variable speed sound on sound looping delay \, tested with soundfile (.wav or .aiff). It works particularly nice with drumloops.;
#N canvas 295 320 450 300 (subpatch) 0;
#X array \$0-ipokebuf 440832 float 2;
#X coords 0 1 440832 -1 400 64 1;
#X restore 408 67 graph;
#X text 552 2965 Be careful with high feedback settings if the soundfile is still playing \, there is no limiter included in this patch.;
#X text 6543 690 clear buffer;
#X obj 274 2836 *~ 0.7;
#X obj 789 2700 *~ 0.7;
#X text 552 3006 If you experience nasty clicks or dropouts \, it may be caused by the array's visual update. Disable the 'draw' toggle.;
#X obj 82 793 hsl 128 15 0 2 0 1 empty empty input-gain 20 8 0 10 #fcfcfc #fc8000 #000000 4600 1;
#N canvas 572 171 217 211 adc 0;
#X obj 60 13 inlet;
#X obj 39 48 *~ 1;
#X obj 39 129 s~ \$0-input;
#X obj 18 13 adc~;
#X obj 123 130 outlet;
#X obj 123 100 env~ 2048;
#X connect 0 0 1 1;
#X connect 1 0 2 0;
#X connect 1 0 5 0;
#X connect 3 0 1 0;
#X connect 3 1 1 0;
#X connect 5 0 4 0;
#X restore 79 841 pd adc;
#X floatatom 90 818 5 0 0 0 - - - 0;
#X obj 769 2725 r~ \$0-input;
#X obj 769 2757 +~;
#X obj 961 2622 tgl 19 0 empty empty empty 0 -10 0 12 #fcfcfc #000000 #000000 0 1;
#X obj 961 2683 t i i;
#X obj 1023 2707 sel 1;
#X obj 1026 2767 line~;
#X obj 768 2790 *~;
#X obj 274 2771 r~ \$0-input;
#X text 988 2623 record;
#X obj 925 2762 *~;
#X obj 943 2790 +~;
#X obj 961 2709 != 1;
#X obj 961 2735 sig~ -1;
#X obj 961 2761 *~;
#X msg 1025 2735 0 \, 1 10 \;;
#X msg 1099 2734 0 10 \;;
#X obj 404 389 vu 15 80 \$0-input-meter in -1 -10 0 10 #404040 #000000 1 0;
#X obj 79 868 - 90;
#X obj 2652 1830 soundfiler;
#X text 1106 39 todo: can we make sure that we init to a 44.1k sample rate?;
#X obj 3753 1994 loadbang;
#X obj 2575 1092 route process-result error;
#X obj 2658 1689 bng 19 250 50 0 empty empty empty 0 -10 0 12 #fcfcfc #000000 #000000;
#X obj 2576 1413 soundfiler;
#X obj 3820 1995 bng 19 250 50 0 empty empty empty 0 -10 0 12 #fcfcfc #000000 #000000;
#X obj 2755 1147 print other-msg;
#X obj 3744 2108 tgl 19 0 empty empty empty 0 -10 0 12 #fcfcfc #000000 #000000 0 1;
#X msg 3817 2049 disconnect;
#X msg 3753 2020 connect localhost 8001;
#X obj 2718 2101 oscformat /process;
#X obj 2718 2129 list prepend send;
#X obj 2718 2153 list trim;
#X obj 3744 2078 netsend -u -b;
#X obj 2576 1039 oscparse;
#X obj 2576 997 netreceive -u -b 8002;
#X obj 2764 1123 print process-result;
#X obj 2673 1410 print readmsg;
#X obj 2575 1065 list trim;
#X obj 2576 1137 symbol;
#X obj 2649 1440 print read;
#X obj 3744 1880 list prepend send;
#X obj 3744 1904 list trim;
#X obj 4187 1791 oscformat /seed;
#X obj 412 -18 hsl 395 64 0 440832 0 0 empty \$0-slider empty -2 -8 0 10 #fcfcfc #fc8000 #000000 0 1;
#N canvas 295 320 450 300 (subpatch) 0;
#X array \$0-wetpokebuf 440832 float 2;
#X coords 0 1 440832 -1 400 64 1;
#X restore 408 -18 graph;
#X obj 889 2144 loadbang;
#X text 210 2000 audio processing;
#X text 343 94 dry buf;
#X text 2540 1690 gloop button;
#X text 3540 1888 OSC controls (4 backend);
#X text 2759 996 osc receive;
#X floatatom 406 265 5 0 0 3 c-periodic \$0_codes_periodic_prompt_UI \$0_codes_periodic_prompt 0;
#X obj 258 2741 expr~ ($v1*(1-$v3*$v3)) + ($v2*($v3*$v3));
#X obj 544 2714 hsl 128 15 0 1 0 1 empty empty xfade 20 8 0 10 #fcfcfc #fc8000 #000000 12700 0;
#X obj 266 2488 phasor~;
#X obj 265 2518 *~ 88200;
#N canvas 329 481 282 268 draw 0;
#X obj 29 168 snapshot~;
#X obj 29 225 s \$0-draw;
#X obj 29 196 bang;
#X obj 183 103 metro 500;
#X obj 29 10 inlet~;
#X obj 183 -2 inlet;
#X obj 80 80 snapshot~;
#X obj 80 106 s \$0-slider;
#X obj 80 51 metro 50;
#X obj 80 26 tgl 15 1 empty empty empty 17 7 0 10 #fcfcfc #000000 #000000 1 1;
#X connect 0 0 2 0;
#X connect 2 0 1 0;
#X connect 3 0 0 0;
#X connect 4 0 0 0;
#X connect 4 0 6 0;
#X connect 5 0 3 0;
#X connect 6 0 7 0;
#X connect 8 0 6 0;
#X connect 9 0 8 0;
#X restore 363 2558 pd draw;
#X floatatom 725 2304 10 44032 440832 0 - - - 0;
#X obj 3633 3091 tgl 19 0 empty empty empty 0 -10 0 12 #fcfcfc #000000 #000000 0 1;
#X obj 3634 3121 sel 1 0;
#X msg 314 2459 0;
#X text 3960 3200 momentary record circuit - on 0->1 \, reset to max size \, clear buffer \, move playhead to 0 \, record enable and play - on 1->0 \, cut buffer to current len \, record disable, f 27;
#X text 952 2210 maxbuffer size;
#X text 811 2311 buffer size;
#X obj 975 2178 print maxbufsize;
#X obj 726 2376 s \$0-slider;
#X obj 268 2388 *;
#X obj 280 2412 s \$0-Hz;
#X msg 726 2346 range 0 \$1;
#X floatatom 726 2242 10 44032 440832 0 - - - 0;
#X text 807 2239 requested bufsize;
#X obj 863 2145 bng 19 250 50 0 empty empty empty 0 -10 0 12 #fcfcfc #000000 #000000;
#X msg 890 2184 441000;
#X obj 267 2107 loadbang;
#X floatatom 419 2117 4 0 0 0 - - - 0;
#X obj 419 2090 bng 19 250 50 0 empty empty empty 0 -10 0 12 #fcfcfc #000000 #000000;
#X msg 338 2212 set \$1;
#X obj 176 2154 t 0 b;
#X obj 3423 3153 t b b b b b b b;
#X msg 3440 3286 1;
#X obj 475 2548 snapshot~;
#X obj 475 2521 r \$0-sample-pos-bang;
#X obj 475 2572 s \$0-sample-pos;
#X obj 961 2585 r \$0-rec-toggle;
#X obj 315 2435 r \$0-reset-phasor;
#X obj 177 2039 r \$0-pause;
#X obj 419 2065 r \$0-play;
#X obj 3463 3263 s \$0-pause;
#X obj 3476 3238 s \$0-reset-phasor;
#X obj 3490 3214 s \$0-clearbuffer;
#X obj 3505 3189 s \$0-maxbufsize;
#X obj 975 2145 r \$0-maxbufsize;
#X obj 3424 3338 s \$0-play;
#X obj 3794 3196 bng 19 250 50 0 empty empty empty 0 -10 0 12 #fcfcfc #000000 #000000;
#X obj 3794 3220 s \$0-sample-pos-bang;
#X obj 3794 3244 r \$0-sample-pos;
#X obj 3791 3270 s \$0-request-bufsize;
#X obj 728 2210 r \$0-request-bufsize;
#X msg 3679 3196 0;
#X obj 890 2208 int;
#X floatatom 267 2210 5 0 0 0 - - - 0;
#X obj 3657 3155 t b b b;
#X obj 3650 3251 s \$0-reset-phasor;
#X obj 768 2819 ipoke~ \$0-ipokebuf;
#X obj 259 2643 tabread4~ \$0-ipokebuf, f 15;
#X obj 397 2643 tabread4~ \$0-wetpokebuf, f 20;
#X obj 6489 719 s \$0-ipokebuf;
#X obj 6598 718 s \$0-wetpokebuf;
#X obj 3440 3313 s \$0-rec-toggle;
#X obj 3679 3220 s \$0-rec-toggle;
#X obj 6489 627 r \$0-clearbuffer;
#X obj 810 2790 r \$0-draw;
#X obj 871 2345 array size \$0-ipokebuf;
#X obj 871 2372 array size \$0-wetpokebuf;
#X obj 6785 618 loadbang;
#X obj 6786 644 \$0;
#X obj 6786 692 r \$0-id;
#X obj 6761 617 bng 19 250 50 0 empty empty empty 0 -10 0 12 #fcfcfc #000000 #000000;
#X obj 6786 668 s \$0-id;
#X msg 2652 1806 write buf.wav \$1;
#X obj 2629 1283 r \$0-id;
#X obj 2629 1332 symbol;
#X msg 2629 1308 \$1-wetpokebuf;
#X msg 2576 1385 read \$1 \$2;
#X obj 2576 1358 pack s s;
#X obj 2683 1476 tgl 19 0 empty empty empty 0 -10 0 12 #fcfcfc #000000 #000000 0 1;
#X obj 2643 1503 spigot;
#X obj 2643 1477 bng 19 250 50 0 empty empty empty 0 -10 0 12 #fcfcfc #000000 #000000;
#X text 2710 1477 auto?;
#X obj 2792 1409 loadbang;
#X msg 2792 1433 0;
#X obj 2858 1762 spigot;
#X obj 2854 1614 tgl 19 0 empty \$0_gloop_feedback feedback? 0 -10 0 12 #fcfcfc #000000 #000000 0 1;
#X obj 2856 1663 == 0;
#X obj 2653 1763 spigot;
#X obj 2818 1567 loadbang;
#X msg 2818 1591 0;
#X text 3023 1354 feedback?;
#X obj 4708 1792 oscformat /temperature;
#X obj 2791 1830 print writemsg;
#X obj 3632 3061 r \$0-momentary-rec-toggle;
#X obj 2592 3059 notein;
#X text 2793 3131 velocity;
#X text 2784 3109 channel;
#X text 2791 3153 note;
#X floatatom 2759 3153 4 0 127 0 - - - 0;
#X floatatom 2759 3130 4 0 127 0 - - - 0;
#X floatatom 2759 3109 0 1 64 0 - - - 0;
#X text 2662 3065 *;
#X obj 2590 3124 pack 0 0;
#X obj 2589 3157 route 60 61;
#X obj 2589 3191 > 0;
#X obj 2589 3215 tgl 19 0 empty empty empty 0 -10 0 12 #fcfcfc #000000 #000000 0 1;
#X text 2882 3126 TEST FOOTSWITCHES;
#X obj 2629 3191 > 0;
#X obj 2629 3215 tgl 19 0 empty empty empty 0 -10 0 12 #fcfcfc #000000 #000000 0 1;
#X obj 2589 3276 s \$0-momentary-rec-toggle;
#X obj 2655 3215 s \$0-gloop;
#X obj 2658 1651 r \$0-gloop;
#X text 1335 2754 daniel: should add EQ // effects!!!;
#X text 1342 2719 hugo: MIDI SYNC IS SO NECESSARY;
#X text 1339 2913 hugo: needs conditioning on density \, frequency \,;
#X obj 6248 148 midirealtimein;
#X floatatom 6248 172 5 0 0 0 - - - 0;
#X obj 6248 215 counter 0 0 5;
#X obj 6248 237 select 0;
#X obj 6248 463 bng 15 70 50 0 empty empty pulse\ (16ths) 17 7 0 10 #fcfcfc #000000 #000000;
#X obj 6248 193 select 248 250 252;
#X obj 6283 322 bng 15 70 50 0 empty empty play 17 7 0 10 #fcfcfc #000000 #000000;
#X obj 6318 346 bng 15 70 50 0 empty empty stop 17 7 0 10 #fcfcfc #000000 #000000;
#X floatatom 6442 232 5 0 0 0 BAR - - 0;
#X msg 6283 431 0;
#X text 6554 497 visual and sound indication with this basic 4/4 metronome;
#N canvas 0 25 1680 997 metro 0;
#X obj 101 -14 inlet, f 6;
#X obj 101 104 bng 15 70 50 0 empty empty empty 17 7 0 10 #fcfcfc #000000 #000000;
#X obj 121 104 bng 15 70 50 0 empty empty empty 17 7 0 10 #fcfcfc #000000 #000000;
#X obj 141 104 bng 15 70 50 0 empty empty empty 17 7 0 10 #fcfcfc #000000 #000000;
#X obj 161 104 bng 15 70 50 0 empty empty empty 17 7 0 10 #fcfcfc #000000 #000000;
#X msg 101 174 1;
#X msg 131 174 2;
#X msg 161 174 3;
#X msg 191 174 4;
#X floatatom 111 125 5 0 0 3 METRONOME - - 0;
#X obj 101 82 loadbang;
#X obj 101 226 osc~;
#X msg 101 196 880;
#X msg 131 196 440;
#X obj 101 304 *~;
#X obj 116 275 line~;
#X obj 101 326 *~;
#X obj 181 104 vsl 15 47 0 127 0 0 empty empty empty 0 -9 0 10 #fcfcfc #000000 #000000 0 1;
#X obj 331 306 / 127;
#X obj 101 348 dac~;
#X msg 116 253 1 \, 0 70;
#X obj 101 38 mod 16;
#X obj 101 60 select 0 1 2 3 4 5 6 7 8 9 10 11 12 13 14 15;
#X obj 479 160 loadbang;
#X msg 479 182 0;
#X msg 511 183 70;
#X obj 101 12 f;
#X obj 138 12 + 1;
#X connect 0 0 26 0;
#X connect 1 0 5 0;
#X connect 1 0 20 0;
#X connect 2 0 6 0;
#X connect 2 0 20 0;
#X connect 3 0 7 0;
#X connect 3 0 20 0;
#X connect 4 0 8 0;
#X connect 4 0 20 0;
#X connect 5 0 9 0;
#X connect 5 0 12 0;
#X connect 6 0 9 0;
#X connect 6 0 13 0;
#X connect 7 0 9 0;
#X connect 7 0 13 0;
#X connect 8 0 9 0;
#X connect 8 0 13 0;
#X connect 10 0 1 0;
#X connect 11 0 14 0;
#X connect 12 0 11 0;
#X connect 13 0 11 0;
#X connect 14 0 16 0;
#X connect 15 0 14 1;
#X connect 16 0 19 0;
#X connect 16 0 19 1;
#X connect 17 0 18 0;
#X connect 18 0 16 1;
#X connect 20 0 15 0;
#X connect 21 0 22 0;
#X connect 22 0 1 0;
#X connect 22 4 2 0;
#X connect 22 8 3 0;
#X connect 22 12 4 0;
#X connect 23 0 5 0;
#X connect 23 0 24 0;
#X connect 23 0 25 0;
#X connect 24 0 14 1;
#X connect 25 0 17 0;
#X connect 26 0 27 0;
#X connect 26 0 21 0;
#X connect 27 0 26 1;
#X coords 0 -1 1 1 101 61 2 100 100;
#X restore 6430 500 pd metro;
#X text 6368 191 select is used as a filter to isolate the needed MIDI info;
#X obj 3583 3011 change;
#X obj 3583 3035 sel 1;
#X obj 3583 3059 bng 19 250 50 0 empty empty empty 0 -10 0 12 #fcfcfc #000000 #000000;
#X obj 3583 2960 tgl 19 0 empty empty empty 0 -10 0 12 #fcfcfc #000000 #000000 0 1;
#X obj 3583 2987 > 0;
#X obj 3583 2931 r \$0-footswitch-style-rec;
#X obj 6248 508 sel 0;
#X obj 6248 532 bng 19 250 50 0 empty empty empty 0 -10 0 12 #fcfcfc #000000 #000000;
#X obj 6248 484 counter 0 3;
#X text 6267 532 pulse (4trs);
#X text 1333 2782 daniel: sounds too dark.;
#N canvas 2 27 1680 997 cut-to-512-hop 0;
#X obj 284 113 int;
#X obj 285 80 expr ($f1 / 512);
#X obj 284 142 expr ($i1 * 512);
#X floatatom 284 171 10 44032 440832 0 - - - 0;
#X text 365 169 resulting bufsize;
#X text 413 80 ENSURE BUFSIZE IS A MULTIPLE OF HOP SIZE 512: hop size of the neural audio codec 44100: sample rate;
#X obj 284 194 outlet;
#X obj 284 51 inlet;
#X connect 0 0 2 0;
#X connect 1 0 0 0;
#X connect 2 0 3 0;
#X connect 3 0 6 0;
#X connect 7 0 1 0;
#X restore 726 2276 pd cut-to-512-hop;
#X obj 5991 245 tgl 19 0 empty empty sync 0 -10 0 12 #fcfcfc #000000 #000000 0 1;
#X obj 5843 249 bng 19 250 50 0 empty empty empty 0 -10 0 12 #fcfcfc #000000 #000000;
#X obj 5843 185 tgl 19 0 empty empty empty 0 -10 0 12 #fcfcfc #000000 #000000 0 1;
#X floatatom 5924 186 5 0 0 0 - - - 0;
#N canvas 382 407 450 300 metro-bpm 0;
#X obj 37 37 inlet;
#X obj 97 36 inlet;
#X obj 37 90 metro 100;
#X obj 97 63 expr 1000 * 60 / $f1;
#X obj 37 124 outlet;
#X connect 0 0 2 0;
#X connect 1 0 3 0;
#X connect 2 0 4 0;
#X connect 3 0 2 1;
#X restore 5843 218 pd metro-bpm;
#X text 5841 157 internal clock;
#X text 6250 111 external clock;
#X obj 2574 1238 cyclone/onebang;
#X obj 2577 1268 symbol;
#X obj 2574 1178 t b s;
#X text 2710 1240 only allow bang through if we haven't cleared the buffer or otherwise canceled it;
#X msg 2497 1197 stop;
#X text 2560 3010 MIDI CONTROL (salad bowl prototype);
#X text 1333 2832 hugo: you should be able to save them (to what? slots? banks? ), f 66;
#X text 348 4 wet buf;
#X text 2333 1262 undo circuit: before reading a new file \, save whatever's in the buffer to a backup buffer, f 25;
#N canvas 295 320 450 300 (subpatch) 0;
#X array \$0-undobuf 440832 float 2;
#X coords 0 1 440832 -1 100 32 1;
#X restore 2371 1460 graph;
#X obj 2367 1382 array get \$0-wetpokebuf;
#X obj 2367 1416 array set \$0-undobuf;
#X obj 2368 1351 bng 19 250 50 0 empty empty empty 0 -10 0 12 #fcfcfc #000000 #000000;
#X text 2398 1349 save undo buffer;
#X obj 2193 1347 bng 19 250 50 0 empty empty empty 0 -10 0 12 #fcfcfc #000000 #000000;
#X text 2215 1344 undo;
#X obj 2191 1418 array set \$0-wetpokebuf;
#X obj 2192 1383 array get \$0-undobuf;
#X obj 2577 1291 t s b;
#X obj 2490 1143 r \$0-gloop-cancel, f 9;
#X obj 6502 659 s \$0-gloop-cancel;
#X obj 871 2399 array size \$0-undobuf;
#N canvas 933 155 450 300 calc-phasor-freq 0;
#X obj 69 144 samplerate~;
#X obj 68 90 loadbang;
#X obj 68 183 / 88200;
#X obj 85 122 bng 15 250 50 0 empty empty empty 17 7 0 10 #fcfcfc #000000 #000000;
#X floatatom 179 80 10 0 0 0 - - - 0;
#X obj 176 106 t b i i;
#X obj 68 216 t b f;
#X obj 179 39 inlet;
#X obj 69 262 outlet;
#X obj 135 261 outlet;
#X connect 0 0 2 0;
#X connect 1 0 0 0;
#X connect 2 0 6 0;
#X connect 3 0 0 0;
#X connect 4 0 5 0;
#X connect 5 0 3 0;
#X connect 5 1 2 1;
#X connect 6 0 8 0;
#X connect 6 1 9 0;
#X connect 7 0 4 0;
#X restore 288 2357 pd calc-phasor-freq;
#X text 401 2193 if pause \, remember last playback speed for when we resume;
#N canvas 1049 271 450 300 ipokebufname 0;
#X msg 258 81 \$1-ipokebuf;
#X obj 257 110 symbol;
#X obj 258 52 r \$0-id, f 9;
#X obj 257 134 outlet;
#X obj 190 77 inlet;
#X connect 0 0 1 0;
#X connect 1 0 3 0;
#X connect 2 0 0 0;
#X connect 4 0 1 0;
#X restore 2656 1736 pd ipokebufname;
#N canvas 1078 300 450 300 wetpokebufname 0;
#X msg 182 104 \$1-wetpokebuf;
#X obj 151 144 symbol;
#X obj 183 78 r \$0-id, f 9;
#X obj 153 177 outlet;
#X obj 130 92 inlet;
#X connect 0 0 1 0;
#X connect 1 0 3 0;
#X connect 2 0 0 0;
#X connect 4 0 1 0;
#X restore 2858 1734 pd wetpokebufname;
#X text 822 2604 write circuit;
#X obj 6785 724 print the-id-of-this-patch-is;
#X obj 973 2653 s \$0-state-rec;
#X obj 5290 2619 tgl 19 0 empty empty empty 0 -10 0 12 #fcfcfc #000000 #000000 0 1;
#X obj 5291 2722 bng 19 250 50 0 empty empty empty 0 -10 0 12 #fcfcfc #000000 #000000;
#X obj 5447 2720 bng 19 250 50 0 empty empty empty 0 -10 0 12 #fcfcfc #000000 #000000;
#X floatatom 5447 2653 5 0 0 0 thresh\ (ms) - - 0;
#X obj 5446 2626 loadbang;
#X text 5234 2724 short;
#N canvas 1136 358 452 389 sw-detect-long-press 0;
#X obj 100 148 timer;
#X obj 100 114 bng 19 250 50 0 empty empty empty 0 -10 0 12 #fcfcfc #000000 #000000;
#X obj 101 75 sel 1 0;
#X obj 131 114 bng 19 250 50 0 empty empty empty 0 -10 0 12 #fcfcfc #000000 #000000;
#X floatatom 100 178 5 0 0 0 - - - 0;
#X obj 100 205 > 500;
#X obj 100 233 sel 0 1;
#X obj 101 40 inlet;
#X obj 236 38 inlet;
#X text 90 15 toggle in;
#X text 223 9 long press threshold (ms);
#X obj 100 275 outlet;
#X obj 155 276 outlet;
#X text 94 301 short;
#X text 157 298 long;
#X connect 0 0 4 0;
#X connect 1 0 0 0;
#X connect 2 0 1 0;
#X connect 2 1 3 0;
#X connect 3 0 0 1;
#X connect 4 0 5 0;
#X connect 5 0 6 0;
#X connect 6 0 11 0;
#X connect 6 1 12 0;
#X connect 7 0 2 0;
#X connect 8 0 5 1;
#X restore 5289 2688 pd sw-detect-long-press;
#X floatatom 5313 2788 5 0 0 0 - - - 0;
#X obj 5295 2968 int;
#X msg 6777 3112 0;
#X obj 4868 3093 bng 19 250 50 0 empty empty empty 0 -10 0 12 #fcfcfc #000000 #000000;
#X obj 5395 3155 bng 19 250 50 0 empty empty empty 0 -10 0 12 #fcfcfc #000000 #000000;
#X msg 4895 3353 1;
#X obj 4918 3330 s \$0-pause;
#X obj 4931 3305 s \$0-reset-phasor;
#X obj 4945 3281 s \$0-clearbuffer;
#X obj 4960 3256 s \$0-maxbufsize;
#X obj 4879 3405 s \$0-play;
#X obj 4895 3380 s \$0-rec-toggle;
#X text 5395 3116 cut -> play;
#X text 4650 3223 momentary record circuit - on 0->1 \, reset to max size \, clear buffer \, move playhead to 0 \, record enable and play - on 1->0 \, cut buffer to current len \, record disable, f 27;
#X obj 5654 3414 bng 19 250 50 0 empty empty empty 0 -10 0 12 #fcfcfc #000000 #000000;
#X obj 5654 3445 s \$0-sample-pos-bang;
#X obj 5654 3469 r \$0-sample-pos;
#X obj 5651 3495 s \$0-request-bufsize;
#X msg 5398 3500 0;
#X obj 5395 3193 t b b b;
#X obj 5129 3457 s \$0-reset-phasor;
#X obj 5398 3524 s \$0-rec-toggle;
#X obj 6088 3196 bng 19 250 50 0 empty empty empty 0 -10 0 12 #fcfcfc #000000 #000000;
#X msg 4898 3092 1;
#X msg 5430 3151 2;
#X text 6067 3160 overdub on;
#X obj 6093 3267 t b;
#X msg 6093 3291 1;
#X obj 6092 3320 s \$0-rec-toggle;
#X text 4935 3092 next state: cut-play;
#X text 5472 3152 next state: overdub on;
#X text 6158 3187 next state: overdub off;
#X msg 6120 3198 3;
#X obj 5293 2998 sel 0 1 2 3;
#X obj 6459 3182 bng 19 250 50 0 empty empty empty 0 -10 0 12 #fcfcfc #000000 #000000;
#X obj 6464 3253 t b;
#X obj 6463 3306 s \$0-rec-toggle;
#X msg 6464 3277 0;
#X msg 6491 3184 2;
#X text 6529 3173 next state: overdub on;
#X obj 6749 3114 bng 19 250 50 0 empty empty empty 0 -10 0 12 #fcfcfc #000000 #000000;
#X obj 6757 3190 t b b b b b b b;
#X obj 6797 3300 s \$0-pause;
#X obj 6810 3275 s \$0-reset-phasor;
#X obj 6824 3251 s \$0-clearbuffer;
#X obj 6839 3226 s \$0-maxbufsize;
#X text 6743 3077 RESET;
#X obj 395 538 tgl 30 0 \$0-ditto-style-rec-sw empty footswitch\ (ditto) 0 -10 0 12 #fcfcfc #000000 #000000 0 1;
#X text 6441 3146 overdub off;
#X obj 4898 3116 s \$0-state-dittosw;
#X obj 5310 2762 r \$0-state-dittosw;
#X obj 5430 3175 s \$0-state-dittosw;
#X obj 6120 3222 s \$0-state-dittosw;
#X obj 6491 3208 s \$0-state-dittosw;
#X msg 4894 2953 ready;
#X obj 4886 2827 sel 0 1 2 3;
#X obj 6777 3136 s \$0-state-dittosw;
#X obj 643 2575 cyclone/edge~;
#X obj 643 2602 bng 19 250 50 0 empty empty empty 0 -10 0 12 #fcfcfc #000000 #000000;
#X obj 643 2626 s \$0-loop-done;
#X obj 5652 3379 cyclone/onebang;
#X msg 5736 3349 stop;
#X obj 5130 3396 cyclone/onebang;
#X msg 5159 3366 stop;
#X obj 5158 3339 r \$0-loop-done;
#X obj 4864 3144 t b b b b b b b b;
#X obj 5124 3176 bng 19 250 50 0 empty empty empty 0 -10 0 12 #fcfcfc #000000 #000000;
#X obj 5130 3420 bng 19 250 50 0 empty empty empty 0 -10 0 12 #fcfcfc #000000 #000000;
#X text 5610 3281 dont cut buffer if we've already done a full loop, f 34;
#X obj 5735 3321 r \$0-loop-done;
#X obj 5415 3417 r \$0-loop-done;
#X obj 5414 3450 cyclone/onebang;
#X msg 5462 3390 stop;
#X text 5392 3299 if loop done and we havent changed state \, still turn off recording. if we change state \, don't allow any bangs through, f 25;
#X msg 4806 2861 set ready;
#X msg 4888 2862 set playing;
#X msg 4986 2862 set overdub;
#X msg 5080 2864 set playing;
#X obj 809 522 r \$0-state-ext-ditto;
#X msg 809 546 ready;
#X obj 4998 2956 s \$0-state-ext-ditto;
#X text 4906 2780 STATE FRONTEND;
#X text 4881 2641 state: 0: ready (then \, we record) 1: playing (then \, we overdub) 2: overdubbing (then \, we disable overdub) 3: overdub off;
#X text 5500 2712 long press: RESET;
#X text 5148 3150 this bang allows for stage 2 to happen, f 19;
#X text 5166 3272 dont force reset phasor if we've already looped, f 22;
#X obj 5290 2590 r \$0-ditto-style-rec-sw;
#X text 4673 3100 STAGE 1 init -> record;
#X text 5396 3098 STAGE 2;
#X text 6065 3138 STAGE 3;
#X text 6446 3126 STAGE 4;
#X text 1336 2868 hugo: need to implement overdub // delete on a footswitch (done \, ditto style footswtich);
#X obj 3976 2019 list prepend send;
#X obj 3976 2043 list trim;
#X text 4112 2015 get a list of available params;
#X obj 4425 1791 oscformat /codes_upper_codebook_mask;
#X obj 3977 1973 oscformat /get_params;
#X obj 3422 1785 oscformat /codes_periodic_prompt;
#X obj 3911 1787 oscformat /controls_periodic_prompt;
#X obj 3975 1934 bng 19 250 50 0 empty empty empty 0 -10 0 12 #fcfcfc #000000 #000000;
#X floatatom 5289 1762 5 0 0 0 - - - 0;
#X obj 5289 1789 oscformat /typical_mass;
#X obj 5353 1757 r \$0-parambang;
#X obj 576 541 tgl 30 0 \$0-momentary-rec-toggle empty toggle\ (momentary) 0 -10 0 12 #fcfcfc #000000 #000000 0 1;
#X floatatom 3422 1753 5 0 0 0 - - - 0;
#X obj 3466 1749 r \$0-parambang;
#X floatatom 497 266 5 0 0 3 ctrls-p \$0_controls_periodic_prompt_UI \$0_controls_periodic_prompt 0;
#X floatatom 406 317 5 0 0 3 ucm \$0_codes_upper_codebook_mask_UI \$0_codes_upper_codebook_mask 0;
#X floatatom 759 266 5 0 0 3 seed \$0_seed_UI \$0_seed 0;
#X floatatom 648 265 5 0 0 3 temperature \$0_temperature_UI \$0_temperature 0;
#X floatatom 644 319 5 0 0 3 typical\ mass \$0_typical_mass_UI \$0_typical_mass 0;
#X obj 3422 1721 r \$0_codes_periodic_prompt;
#X floatatom 3913 1761 5 0 0 0 - - - 0;
#X obj 3964 1760 r \$0-parambang;
#X obj 3913 1725 r \$0_controls_periodic_prompt;
#X floatatom 4187 1754 5 0 0 0 - - - 0;
#X obj 4235 1753 r \$0-parambang;
#X obj 4186 1720 r \$0_seed;
#X floatatom 4427 1753 5 0 0 0 - - - 0;
#X obj 4477 1752 r \$0-parambang;
#X obj 4427 1718 r \$0_codes_upper_codebook_mask;
#X floatatom 4706 1762 5 0 0 0 - - - 0;
#X obj 4751 1760 r \$0-parambang;
#X obj 784 2521 sig~ 0.99;
#X obj 3869 862 pack \$0;
#X obj 3870 834 bng 19 250 50 0 empty empty empty 0 -10 0 12 #fcfcfc #000000 #000000;
#X obj 3639 829 bng 19 250 50 0 empty empty empty 0 -10 0 12 #fcfcfc #000000 #000000;
#X obj 3674 826 loadbang;
#X obj 3638 862 bng 19 250 50 0 empty empty empty 0 -10 0 12 #fcfcfc #000000 #000000;
#X obj 4706 1727 r \$0_temperature;
#X obj 5285 1717 r \$0_typical_mass;
#X obj 3638 886 s \$0-parambang;
#X obj 3871 802 loadbang;
#X obj 1705 2195 soundfiler;
#X obj 1705 2116 openpanel;
#X obj 1705 2081 bng 19 250 50 0 empty empty empty 17 7 0 10 #dfdfdf #000000 #000000;
#X obj 1792 2196 print load-from-file-msg;
#X obj 1705 2139 pack s \$0;
#X floatatom 1705 2218 5 0 0 0 - - - 0;
#X obj 1705 2240 s \$0-request-bufsize;
#X msg 1705 2162 read -resize \$1 \$2-ipokebuf;
#X obj 507 441 bng 30 250 50 0 \$0-gloop empty gloop 0 -10 0 12 #fcfcfc #000000 #000000;
#X obj 2840 1434 r \$0-auto;
#X obj 758 329 tgl 30 0 \$0-auto empty auto 0 -10 0 12 #fcfcfc #000000 #000000 0 1;
#X obj 79 892 s \$0-input-meter;
#X obj 1704 2053 r \$0-load-from-file;
#X obj 870 338 bng 19 250 50 0 \$0-load-from-file empty load\ file 0 -10 0 12 #fcfcfc #000000 #000000;
#X floatatom 496 313 5 0 0 3 ctrl\ drop \$0_controls_drop_amt_UI \$0_controls_drop_amt 0;
#X floatatom 3673 1756 5 0 0 0 - - - 0;
#X obj 3724 1755 r \$0-parambang;
#X obj 3671 1782 oscformat /controls_drop_amt;
#X obj 3673 1720 r \$0_controls_drop_amt;
#X obj 771 389 vu 10 80 \$0-output-meter out -1 -10 0 10 #404040 #000000 1 0;
#X obj 540 2688 r \$0-xfade;
#X obj 600 436 hsl 128 15 0 1 0 1 \$0-xfade \$0-xfade-UI xfade 20 8 0 10 #fcfcfc #fc8000 #000000 12700 0;
#X obj 302 2877 r \$0-output-level;
#X obj 601 461 hsl 128 15 0 1 0 1 \$0-output-level \$0-output-level-UI output-level 20 8 0 10 #fcfcfc #fc8000 #000000 4400 0;
#X obj 150 2942 env~ 2048;
#X obj 150 2993 s \$0-output-meter;
#X obj 150 2966 - 90;
#X floatatom 4928 1757 5 0 0 0 - - - 0;
#X obj 4973 1755 r \$0-parambang;
#X obj 4930 1787 oscformat /mask_temperature;
#X obj 4928 1722 r \$0_mask_temperature;
#X floatatom 872 268 5 0 0 3 mask\ temperature \$0_mask_temperature_UI \$0_mask_temperature 0;
#X obj 2903 1660 tgl 19 0 empty empty empty 0 -10 0 12 #fcfcfc #000000 #000000 0 1;
#X obj 868 393 tgl 19 0 \$0_gloop_feedback \$0_gloop_feedback_UI feedback? 0 -10 0 12 #fcfcfc #000000 #000000 0 1;
#X obj 2191 1304 r \$0_undo;
#X obj 870 444 bng 19 250 50 0 \$0_undo \$0_undo_UI undo 0 -10 0 12 #fcfcfc #000000 #000000;
#X obj 2497 1221 bng 19 250 50 0 empty empty empty 0 -10 0 12 #fcfcfc #000000 #000000;
#X obj 2574 1202 bng 19 250 50 0 empty empty empty 0 -10 0 12 #fcfcfc #000000 #000000;
#X obj 2671 1209 bng 19 250 50 0 empty empty empty 0 -10 0 12 #fcfcfc #000000 #000000;
#X obj 2671 1178 delay 50;
#X obj 641 2550 cyclone/greaterthaneq~;
#X obj 2374 1534 r~ \$0-phasor;
#X obj 2374 1589 cyclone/edge~;
#X obj 2373 1565 cyclone/greaterthaneq~;
#X obj 2529 1539 sig~ 0.8;
#X obj 2374 1613 bng 19 250 50 0 empty empty empty 0 -10 0 12 #fcfcfc #000000 #000000;
#X obj 2595 1642 onebang;
#X obj 50 2530 send~ \$0-phasor;
#X text 2189 1577 wait for loopdone (ish) to trigger another gloop, f 23;
#N canvas 295 320 450 300 (subpatch) 0;
#X array \$0-timbrebuf 88200 float 2;
#X coords 0 1 88200 -1 100 60 1 0 0;
#X restore 856 -17 graph;
#X obj 634 935 soundfiler;
#X obj 634 856 openpanel;
#X obj 634 821 bng 19 250 50 0 empty empty empty 17 7 0 10 #dfdfdf #000000 #000000;
#X obj 633 793 r \$0-load-timbre-from-file;
#X obj 857 67 bng 19 250 50 0 \$0-load-timbre empty load\ timbre 0 -10 0 12 #fcfcfc #000000 #000000;
#X floatatom 634 962 5 0 0 0 - - - 0;
#X floatatom 861 832 5 0 0 0 - - - 0;
#X obj 861 855 * 44100, f 9;
#X text 939 852 max timbre file size (s);
#X obj 634 879 pack s \$0 220500;
#X msg 634 902 read -maxsize \$3 -resize \$1 \$2-timbrebuf;
#X obj 861 796 r \$0_max_timbre_file_size;
#X msg 3868 890 \; \$1_codes_periodic_prompt_UI 0 \; \$1_controls_periodic_prompt_UI 7 \; \$1_controls_drop_amt_UI 0.15 \; \$1_seed_UI -1 \; \$1_codes_upper_codebook_mask_UI 4 \; \$1_temperature_UI 1 \; \$1_mask_temperature_UI 1000 \; \$1_typical_mass_UI 0.15 \; \$1_gloop_feedback_UI 0 \; \$1_max_timbre_file_size 2 \;;
#X obj 2959 1957 soundfiler;
#X obj 2959 1904 pack \$0;
#X obj 2960 1876 bng 19 250 50 0 empty empty empty 0 -10 0 12 #fcfcfc #000000 #000000;
#X msg 2959 1933 write timbre.wav \$1-timbrebuf;
#X obj 3098 1957 print writemsgtimbre;
#X text 2933 1829 once we write buf.wav \, write timbre.wav;
#X obj 3027 1985 t b b;
#X obj 3027 2042 symbol;
#X msg 3026 2017 buf.wav;
#X obj 3104 2041 symbol;
#X msg 3103 2016 timbre.wav;
#X obj 3022 2079 pack s s;
#X text 974 1 timbre buf;
#X text 614 -67 gloooooooooooooop;
#X obj 606 178 ggee/image input.gif;
#X obj 1216 255 oscparse;
#X obj 1216 213 netreceive -u -b 8002;
#X obj 1215 281 list trim;
#X obj 1215 308 route img error;
#X obj 1215 332 symbol;
#X msg 1150 355 open \$1;
#X connect 2 0 3 0;
#X connect 2 0 13 1;
#X connect 4 0 0 0;
#X connect 5 0 7 0;
#X connect 5 0 127 0;
#X connect 6 0 22 0;
#X connect 7 0 103 0;
#X connect 9 0 133 0;
#X connect 9 0 134 0;
#X connect 11 0 22 1;
#X connect 14 0 83 1;
#X connect 16 0 21 1;
#X connect 21 0 13 0;
#X connect 22 0 28 1;
#X connect 24 0 25 0;
#X connect 24 0 26 0;
#X connect 25 0 44 0;
#X connect 27 0 28 0;
#X connect 28 0 33 0;
#X connect 29 0 30 0;
#X connect 29 0 249 0;
#X connect 30 0 36 1;
#X connect 30 0 38 0;
#X connect 30 1 31 0;
#X connect 31 0 41 0;
#X connect 31 1 42 0;
#X connect 32 0 33 1;
#X connect 34 0 21 0;
#X connect 36 0 37 0;
#X connect 38 0 40 1;
#X connect 39 0 40 0;
#X connect 40 0 37 1;
#X connect 41 0 32 0;
#X connect 42 0 32 0;
#X connect 44 0 401 0;
#X connect 45 1 455 0;
#X connect 47 0 55 0;
#X connect 48 0 65 0;
#X connect 48 0 62 0;
#X connect 48 2 52 0;
#X connect 49 0 245 0;
#X connect 49 0 246 0;
#X connect 49 0 429 0;
#X connect 50 1 66 0;
#X connect 50 1 154 0;
#X connect 51 0 55 0;
#X connect 54 0 59 0;
#X connect 55 0 59 0;
#X connect 56 0 57 0;
#X connect 57 0 58 0;
#X connect 58 0 59 0;
#X connect 59 0 53 0;
#X connect 60 0 64 0;
#X connect 61 0 60 0;
#X connect 64 0 48 0;
#X connect 65 0 223 0;
#X connect 67 0 68 0;
#X connect 68 0 59 0;
#X connect 69 0 67 0;
#X connect 72 0 99 0;
#X connect 79 0 13 0;
#X connect 79 0 414 0;
#X connect 80 0 79 2;
#X connect 81 0 82 0;
#X connect 81 0 430 0;
#X connect 81 0 437 0;
#X connect 82 0 83 0;
#X connect 82 0 36 0;
#X connect 82 0 107 0;
#X connect 82 0 131 0;
#X connect 82 0 132 0;
#X connect 84 0 95 0;
#X connect 84 0 139 0;
#X connect 84 0 140 0;
#X connect 84 0 242 0;
#X connect 84 0 243 0;
#X connect 84 0 82 1;
#X connect 85 0 86 0;
#X connect 86 0 105 0;
#X connect 86 1 128 0;
#X connect 87 0 81 1;
#X connect 93 0 94 0;
#X connect 93 0 81 0;
#X connect 95 0 92 0;
#X connect 96 0 213 0;
#X connect 98 0 99 0;
#X connect 99 0 126 0;
#X connect 100 0 5 0;
#X connect 101 0 5 0;
#X connect 102 0 101 0;
#X connect 103 0 101 0;
#X connect 104 0 127 0;
#X connect 104 1 7 0;
#X connect 105 0 119 0;
#X connect 105 1 106 0;
#X connect 105 2 114 0;
#X connect 105 3 115 0;
#X connect 105 4 116 0;
#X connect 105 5 117 0;
#X connect 106 0 135 0;
#X connect 107 0 109 0;
#X connect 108 0 107 0;
#X connect 110 0 29 0;
#X connect 111 0 87 0;
#X connect 112 0 104 0;
#X connect 113 0 102 0;
#X connect 118 0 91 0;
#X connect 118 0 99 0;
#X connect 120 0 121 0;
#X connect 122 0 123 0;
#X connect 124 0 96 0;
#X connect 125 0 136 0;
#X connect 126 0 96 0;
#X connect 127 0 93 0;
#X connect 128 0 129 0;
#X connect 128 1 125 0;
#X connect 128 2 120 0;
#X connect 131 0 6 0;
#X connect 131 0 79 0;
#X connect 132 0 79 1;
#X connect 137 0 9 0;
#X connect 137 0 241 0;
#X connect 138 0 130 0;
#X connect 141 0 142 0;
#X connect 142 0 145 0;
#X connect 143 0 248 0;
#X connect 144 0 142 0;
#X connect 146 0 45 0;
#X connect 146 0 166 0;
#X connect 147 0 149 0;
#X connect 148 0 151 1;
#X connect 149 0 148 0;
#X connect 150 0 50 0;
#X connect 150 0 63 0;
#X connect 151 0 150 0;
#X connect 152 0 153 1;
#X connect 153 0 436 1;
#X connect 154 0 153 0;
#X connect 156 0 157 0;
#X connect 157 0 152 0;
#X connect 158 0 146 0;
#X connect 159 0 158 1;
#X connect 159 0 160 0;
#X connect 159 0 422 0;
#X connect 160 0 161 1;
#X connect 161 0 146 0;
#X connect 162 0 163 0;
#X connect 163 0 159 0;
#X connect 165 0 67 0;
#X connect 167 0 85 0;
#X connect 168 0 172 0;
#X connect 168 0 176 0;
#X connect 168 1 173 0;
#X connect 168 1 176 1;
#X connect 168 2 174 0;
#X connect 176 0 177 0;
#X connect 177 0 178 0;
#X connect 177 1 181 0;
#X connect 178 0 179 0;
#X connect 179 0 183 0;
#X connect 181 0 182 0;
#X connect 181 0 184 0;
#X connect 185 0 49 0;
#X connect 189 0 190 0;
#X connect 190 0 194 0;
#X connect 191 0 192 0;
#X connect 191 3 197 0;
#X connect 192 0 193 0;
#X connect 193 0 200 0;
#X connect 193 0 210 0;
#X connect 194 0 191 0;
#X connect 194 1 195 0;
#X connect 194 2 196 0;
#X connect 195 0 198 0;
#X connect 196 0 198 0;
#X connect 198 0 200 0;
#X connect 202 0 203 0;
#X connect 203 0 204 0;
#X connect 204 0 85 0;
#X connect 205 0 206 0;
#X connect 206 0 202 0;
#X connect 207 0 205 0;
#X connect 208 0 209 0;
#X connect 210 0 208 0;
#X connect 213 0 84 0;
#X connect 216 0 218 0;
#X connect 217 0 218 1;
#X connect 218 0 215 0;
#X connect 221 0 222 0;
#X connect 222 0 239 0;
#X connect 223 0 221 0;
#X connect 223 0 427 0;
#X connect 223 1 222 1;
#X connect 225 0 221 0;
#X connect 225 0 426 0;
#X connect 231 0 232 0;
#X connect 233 0 231 0;
#X connect 235 0 238 0;
#X connect 238 0 237 0;
#X connect 239 0 151 0;
#X connect 239 1 233 0;
#X connect 240 0 225 0;
#X connect 243 0 93 0;
#X connect 243 1 93 1;
#X connect 245 0 161 0;
#X connect 246 0 158 0;
#X connect 250 0 256 0;
#X connect 251 0 258 0;
#X connect 252 0 297 0;
#X connect 253 0 256 1;
#X connect 254 0 253 0;
#X connect 256 0 251 0;
#X connect 256 1 252 0;
#X connect 257 0 258 1;
#X connect 257 0 312 0;
#X connect 258 0 290 0;
#X connect 259 0 313 0;
#X connect 260 0 280 0;
#X connect 260 0 322 0;
#X connect 261 0 276 0;
#X connect 261 0 281 0;
#X connect 262 0 268 0;
#X connect 271 0 272 0;
#X connect 273 0 274 0;
#X connect 275 0 278 0;
#X connect 276 0 319 0;
#X connect 276 1 275 0;
#X connect 276 1 329 0;
#X connect 276 2 317 0;
#X connect 279 0 283 0;
#X connect 279 0 289 0;
#X connect 280 0 306 0;
#X connect 281 0 308 0;
#X connect 283 0 284 0;
#X connect 284 0 285 0;
#X connect 289 0 309 0;
#X connect 290 0 260 0;
#X connect 290 1 261 0;
#X connect 290 2 279 0;
#X connect 290 3 291 0;
#X connect 291 0 292 0;
#X connect 291 0 295 0;
#X connect 292 0 294 0;
#X connect 294 0 293 0;
#X connect 295 0 310 0;
#X connect 297 0 259 0;
#X connect 297 0 298 0;
#X connect 298 2 299 0;
#X connect 298 3 300 0;
#X connect 298 4 301 0;
#X connect 298 5 302 0;
#X connect 307 0 257 0;
#X connect 312 0 331 0;
#X connect 312 1 332 0;
#X connect 312 2 333 0;
#X connect 312 3 334 0;
#X connect 314 0 315 0;
#X connect 315 0 316 0;
#X connect 317 0 271 0;
#X connect 318 0 317 0;
#X connect 319 0 324 0;
#X connect 320 0 319 0;
#X connect 321 0 320 0;
#X connect 322 0 323 0;
#X connect 322 1 267 0;
#X connect 322 2 262 0;
#X connect 322 3 263 0;
#X connect 322 4 264 0;
#X connect 322 5 265 0;
#X connect 322 6 266 0;
#X connect 323 0 319 1;
#X connect 323 0 317 1;
#X connect 323 0 328 1;
#X connect 324 0 277 0;
#X connect 326 0 318 0;
#X connect 327 0 328 0;
#X connect 328 0 275 0;
#X connect 329 0 328 0;
#X connect 331 0 311 0;
#X connect 331 0 337 0;
#X connect 332 0 311 0;
#X connect 332 0 337 0;
#X connect 333 0 311 0;
#X connect 333 0 337 0;
#X connect 334 0 311 0;
#X connect 334 0 337 0;
#X connect 335 0 336 0;
#X connect 343 0 250 0;
#X connect 349 0 350 0;
#X connect 350 0 59 0;
#X connect 352 0 67 0;
#X connect 353 0 349 0;
#X connect 354 0 67 0;
#X connect 355 0 67 0;
#X connect 356 0 353 0;
#X connect 357 0 358 0;
#X connect 358 0 67 0;
#X connect 359 0 357 0;
#X connect 361 0 354 0;
#X connect 362 0 361 0;
#X connect 368 0 361 0;
#X connect 369 0 355 0;
#X connect 370 0 369 0;
#X connect 371 0 369 0;
#X connect 372 0 69 0;
#X connect 373 0 372 0;
#X connect 374 0 372 0;
#X connect 375 0 352 0;
#X connect 376 0 375 0;
#X connect 377 0 375 0;
#X connect 378 0 165 0;
#X connect 379 0 378 0;
#X connect 380 0 430 1;
#X connect 381 0 452 0;
#X connect 382 0 381 0;
#X connect 383 0 385 0;
#X connect 384 0 385 0;
#X connect 385 0 388 0;
#X connect 386 0 378 0;
#X connect 387 0 357 0;
#X connect 389 0 382 0;
#X connect 390 0 395 0;
#X connect 391 0 394 0;
#X connect 392 0 391 0;
#X connect 394 0 397 0;
#X connect 395 0 396 0;
#X connect 397 0 390 0;
#X connect 397 0 393 0;
#X connect 399 0 152 0;
#X connect 402 0 392 0;
#X connect 405 0 407 0;
#X connect 406 0 405 0;
#X connect 407 0 67 0;
#X connect 408 0 405 0;
#X connect 410 0 80 0;
#X connect 412 0 2 0;
#X connect 414 0 416 0;
#X connect 416 0 415 0;
#X connect 417 0 419 0;
#X connect 418 0 417 0;
#X connect 419 0 67 0;
#X connect 420 0 417 0;
#X connect 424 0 235 0;
#X connect 428 0 221 1;
#X connect 429 0 428 0;
#X connect 430 0 314 0;
#X connect 431 0 433 0;
#X connect 432 0 435 0;
#X connect 433 0 432 0;
#X connect 434 0 433 1;
#X connect 435 0 436 0;
#X connect 436 0 49 0;
#X connect 440 0 445 0;
#X connect 441 0 449 0;
#X connect 442 0 441 0;
#X connect 443 0 442 0;
#X connect 446 0 447 0;
#X connect 447 0 449 2;
#X connect 449 0 450 0;
#X connect 450 0 440 0;
#X connect 451 0 446 0;
#X connect 453 1 459 0;
#X connect 454 0 456 0;
#X connect 455 0 454 0;
#X connect 456 0 453 0;
#X connect 456 0 457 0;
#X connect 459 0 461 0;
#X connect 459 1 463 0;
#X connect 460 0 464 0;
#X connect 461 0 460 0;
#X connect 462 0 464 1;
#X connect 463 0 462 0;
#X connect 464 0 56 0;
#X connect 468 0 470 0;
#X connect 469 0 468 0;
#X connect 470 0 471 0;
#X connect 471 0 472 0;
#X connect 472 0 473 0;
#X connect 473 0 467 0;
#X coords 0 -1 1 1 200 128 1 100 100;
