{
	"patcher" : 	{
		"fileversion" : 1,
		"appversion" : 		{
			"major" : 8,
			"minor" : 6,
			"revision" : 5,
			"architecture" : "x64",
			"modernui" : 1
		}
,
		"classnamespace" : "box",
		"rect" : [ 34.0, 87.0, 1212.0, 929.0 ],
		"bglocked" : 0,
		"openinpresentation" : 1,
		"default_fontsize" : 12.0,
		"default_fontface" : 0,
		"default_fontname" : "Arial",
		"gridonopen" : 1,
		"gridsize" : [ 15.0, 15.0 ],
		"gridsnaponopen" : 1,
		"objectsnaponopen" : 1,
		"statusbarvisible" : 2,
		"toolbarvisible" : 1,
		"lefttoolbarpinned" : 0,
		"toptoolbarpinned" : 0,
		"righttoolbarpinned" : 0,
		"bottomtoolbarpinned" : 0,
		"toolbars_unpinned_last_save" : 0,
		"tallnewobj" : 0,
		"boxanimatetime" : 200,
		"enablehscroll" : 1,
		"enablevscroll" : 1,
		"devicewidth" : 0.0,
		"description" : "",
		"digest" : "",
		"tags" : "",
		"style" : "",
		"subpatcher_template" : "",
		"assistshowspatchername" : 0,
		"boxes" : [ 			{
				"box" : 				{
					"fontsize" : 8.0,
					"id" : "obj-13",
					"maxclass" : "number",
					"maximum" : 64,
					"minimum" : 1,
					"numinlets" : 1,
					"numoutlets" : 2,
					"outlettype" : [ "", "bang" ],
					"parameter_enable" : 1,
					"patching_rect" : [ 1310.734448432922363, 511.55017364025116, 42.0, 17.0 ],
					"presentation" : 1,
					"presentation_rect" : [ 89.5, 135.0, 42.0, 17.0 ],
					"saved_attribute_attributes" : 					{
						"valueof" : 						{
							"parameter_initial" : [ 1 ],
							"parameter_initial_enable" : 1,
							"parameter_longname" : "number[9]",
							"parameter_mmax" : 64.0,
							"parameter_mmin" : 1.0,
							"parameter_modmode" : 3,
							"parameter_shortname" : "number[3]",
							"parameter_type" : 0
						}

					}
,
					"varname" : "number[8]"
				}

			}
, 			{
				"box" : 				{
					"fontsize" : 8.0,
					"id" : "obj-14",
					"linecount" : 2,
					"maxclass" : "comment",
					"numinlets" : 1,
					"numoutlets" : 0,
					"patching_rect" : [ 1310.734448432922363, 472.547349274158478, 55.0, 24.0 ],
					"presentation" : 1,
					"presentation_rect" : [ 7.120483428239822, 135.939657211303711, 70.0, 15.0 ],
					"text" : "feedback steps"
				}

			}
, 			{
				"box" : 				{
					"fontsize" : 8.0,
					"id" : "obj-4",
					"linecount" : 3,
					"maxclass" : "comment",
					"numinlets" : 1,
					"numoutlets" : 0,
					"patching_rect" : [ 1257.333370804786682, 468.047349274158478, 38.0, 33.0 ],
					"presentation" : 1,
					"presentation_rect" : [ 6.770833075046539, 114.960636019706726, 69.107615292072296, 15.0 ],
					"text" : "beat mask ms"
				}

			}
, 			{
				"box" : 				{
					"fontsize" : 8.0,
					"format" : 6,
					"id" : "obj-12",
					"maxclass" : "flonum",
					"maximum" : 400.0,
					"minimum" : 0.0,
					"numinlets" : 1,
					"numoutlets" : 2,
					"outlettype" : [ "", "bang" ],
					"parameter_enable" : 1,
					"patching_rect" : [ 1258.000037491321564, 506.71401709318161, 40.0, 17.0 ],
					"presentation" : 1,
					"presentation_rect" : [ 90.5, 113.960636019706726, 40.0, 17.0 ],
					"saved_attribute_attributes" : 					{
						"valueof" : 						{
							"parameter_initial" : [ 0.0 ],
							"parameter_initial_enable" : 1,
							"parameter_longname" : "number[8]",
							"parameter_mmax" : 400.0,
							"parameter_modmode" : 3,
							"parameter_shortname" : "number[2]",
							"parameter_type" : 0
						}

					}
,
					"varname" : "number[7]"
				}

			}
, 			{
				"box" : 				{
					"fontsize" : 8.0,
					"format" : 6,
					"id" : "obj-30",
					"maxclass" : "flonum",
					"maximum" : 1.0,
					"minimum" : 0.0,
					"numinlets" : 1,
					"numoutlets" : 2,
					"outlettype" : [ "", "bang" ],
					"parameter_enable" : 1,
					"patching_rect" : [ 1207.467486619949341, 506.74109160900116, 40.0, 17.0 ],
					"presentation" : 1,
					"presentation_rect" : [ 224.601398587226868, 114.829166448116297, 41.258741676807404, 17.0 ],
					"saved_attribute_attributes" : 					{
						"valueof" : 						{
							"parameter_initial" : [ 0.0 ],
							"parameter_initial_enable" : 1,
							"parameter_longname" : "number[7]",
							"parameter_mmax" : 1.0,
							"parameter_modmode" : 3,
							"parameter_shortname" : "number[2]",
							"parameter_type" : 0
						}

					}
,
					"varname" : "number[6]"
				}

			}
, 			{
				"box" : 				{
					"fontsize" : 8.0,
					"id" : "obj-29",
					"maxclass" : "comment",
					"numinlets" : 1,
					"numoutlets" : 0,
					"patching_rect" : [ 1209.467486619949341, 468.047349274158478, 38.0, 15.0 ],
					"presentation" : 1,
					"presentation_rect" : [ 149.0, 118.229166448116302, 54.0, 15.0 ],
					"text" : "top p"
				}

			}
, 			{
				"box" : 				{
					"fontsize" : 8.0,
					"id" : "obj-27",
					"maxclass" : "comment",
					"numinlets" : 1,
					"numoutlets" : 0,
					"patching_rect" : [ 1165.088787257671356, 468.279552161693573, 38.0, 15.0 ],
					"presentation" : 1,
					"presentation_rect" : [ 149.0, 135.229166448116302, 54.0, 15.0 ],
					"text" : "temp"
				}

			}
, 			{
				"box" : 				{
					"fontsize" : 8.0,
					"format" : 6,
					"id" : "obj-28",
					"maxclass" : "flonum",
					"maximum" : 5.0,
					"minimum" : 0.0,
					"numinlets" : 1,
					"numoutlets" : 2,
					"outlettype" : [ "", "bang" ],
					"parameter_enable" : 1,
					"patching_rect" : [ 1165.680503249168396, 506.74109160900116, 40.0, 17.0 ],
					"presentation" : 1,
					"presentation_rect" : [ 224.601398587226868, 134.229166448116302, 41.258741676807404, 17.0 ],
					"saved_attribute_attributes" : 					{
						"valueof" : 						{
							"parameter_initial" : [ 1.0 ],
							"parameter_initial_enable" : 1,
							"parameter_longname" : "number[6]",
							"parameter_mmax" : 5.0,
							"parameter_modmode" : 3,
							"parameter_shortname" : "number[2]",
							"parameter_type" : 0
						}

					}
,
					"varname" : "number[5]"
				}

			}
, 			{
				"box" : 				{
					"fontsize" : 8.0,
					"id" : "obj-26",
					"maxclass" : "number",
					"maximum" : 64,
					"minimum" : 8,
					"numinlets" : 1,
					"numoutlets" : 2,
					"outlettype" : [ "", "bang" ],
					"parameter_enable" : 1,
					"patching_rect" : [ 1095.275648653507233, 507.086641073226929, 42.0, 17.0 ],
					"presentation" : 1,
					"presentation_rect" : [ 224.0, 95.429166448116291, 42.0, 17.0 ],
					"saved_attribute_attributes" : 					{
						"valueof" : 						{
							"parameter_initial" : [ 32 ],
							"parameter_initial_enable" : 1,
							"parameter_longname" : "number[5]",
							"parameter_mmax" : 64.0,
							"parameter_mmin" : 8.0,
							"parameter_modmode" : 3,
							"parameter_shortname" : "number[3]",
							"parameter_type" : 0
						}

					}
,
					"varname" : "number[4]"
				}

			}
, 			{
				"box" : 				{
					"fontsize" : 8.0,
					"id" : "obj-25",
					"maxclass" : "comment",
					"numinlets" : 1,
					"numoutlets" : 0,
					"patching_rect" : [ 1107.086672902107239, 463.779552161693573, 55.0, 15.0 ],
					"presentation" : 1,
					"presentation_rect" : [ 149.0, 96.229166448116302, 70.0, 15.0 ],
					"text" : "num steps"
				}

			}
, 			{
				"box" : 				{
					"fontsize" : 8.0,
					"id" : "obj-23",
					"maxclass" : "number",
					"maximum" : 1024,
					"minimum" : 0,
					"numinlets" : 1,
					"numoutlets" : 2,
					"outlettype" : [ "", "bang" ],
					"parameter_enable" : 1,
					"patching_rect" : [ 1037.79533064365387, 507.086641073226929, 42.0, 17.0 ],
					"presentation" : 1,
					"presentation_rect" : [ 224.0, 76.0291664481163, 42.0, 17.0 ],
					"saved_attribute_attributes" : 					{
						"valueof" : 						{
							"parameter_initial" : [ 0 ],
							"parameter_initial_enable" : 1,
							"parameter_longname" : "number[4]",
							"parameter_mmax" : 1024.0,
							"parameter_modmode" : 3,
							"parameter_shortname" : "number[3]",
							"parameter_type" : 0
						}

					}
,
					"varname" : "number[3]"
				}

			}
, 			{
				"box" : 				{
					"fontsize" : 8.0,
					"id" : "obj-24",
					"linecount" : 2,
					"maxclass" : "comment",
					"numinlets" : 1,
					"numoutlets" : 0,
					"patching_rect" : [ 1037.007929027080536, 463.779552161693573, 55.0, 24.0 ],
					"presentation" : 1,
					"presentation_rect" : [ 149.0, 77.229166448116302, 70.0, 15.0 ],
					"text" : "onset mask width"
				}

			}
, 			{
				"box" : 				{
					"id" : "obj-22",
					"maxclass" : "newobj",
					"numinlets" : 1,
					"numoutlets" : 1,
					"outlettype" : [ "bang" ],
					"patching_rect" : [ 779.0, 402.0, 58.0, 22.0 ],
					"text" : "loadbang"
				}

			}
, 			{
				"box" : 				{
					"fontsize" : 8.0,
					"id" : "obj-21",
					"linecount" : 3,
					"maxclass" : "comment",
					"numinlets" : 1,
					"numoutlets" : 0,
					"patching_rect" : [ 972.0, 425.0, 45.0, 33.0 ],
					"presentation" : 1,
					"presentation_rect" : [ 6.770833075046539, 94.000002801418304, 92.0, 15.0 ],
					"text" : "codebook level mask"
				}

			}
, 			{
				"box" : 				{
					"fontsize" : 8.0,
					"id" : "obj-20",
					"maxclass" : "number",
					"maximum" : 14,
					"minimum" : 1,
					"numinlets" : 1,
					"numoutlets" : 2,
					"outlettype" : [ "", "bang" ],
					"parameter_enable" : 1,
					"patching_rect" : [ 973.0, 507.0, 45.0, 17.0 ],
					"presentation" : 1,
					"presentation_rect" : [ 85.5, 93.000002801418304, 45.0, 17.0 ],
					"saved_attribute_attributes" : 					{
						"valueof" : 						{
							"parameter_initial" : [ 4 ],
							"parameter_initial_enable" : 1,
							"parameter_longname" : "number",
							"parameter_mmax" : 14.0,
							"parameter_mmin" : 1.0,
							"parameter_modmode" : 3,
							"parameter_shortname" : "number",
							"parameter_type" : 0
						}

					}
,
					"varname" : "number"
				}

			}
, 			{
				"box" : 				{
					"fontsize" : 8.0,
					"id" : "obj-19",
					"maxclass" : "number",
					"maximum" : 1024,
					"minimum" : 0,
					"numinlets" : 1,
					"numoutlets" : 2,
					"outlettype" : [ "", "bang" ],
					"parameter_enable" : 1,
					"patching_rect" : [ 906.0, 507.0, 42.0, 17.0 ],
					"presentation" : 1,
					"presentation_rect" : [ 224.0, 56.629166448116301, 42.0, 17.0 ],
					"saved_attribute_attributes" : 					{
						"valueof" : 						{
							"parameter_initial" : [ 64 ],
							"parameter_initial_enable" : 1,
							"parameter_longname" : "number[3]",
							"parameter_mmax" : 1024.0,
							"parameter_modmode" : 3,
							"parameter_shortname" : "number[3]",
							"parameter_type" : 0
						}

					}
,
					"varname" : "number[2]"
				}

			}
, 			{
				"box" : 				{
					"fontsize" : 8.0,
					"id" : "obj-17",
					"linecount" : 2,
					"maxclass" : "comment",
					"numinlets" : 1,
					"numoutlets" : 0,
					"patching_rect" : [ 905.0, 464.0, 55.0, 24.0 ],
					"presentation" : 1,
					"presentation_rect" : [ 149.0, 58.229166448116302, 70.0, 15.0 ],
					"text" : "typical min tok"
				}

			}
, 			{
				"box" : 				{
					"fontsize" : 8.0,
					"id" : "obj-16",
					"linecount" : 2,
					"maxclass" : "comment",
					"numinlets" : 1,
					"numoutlets" : 0,
					"patching_rect" : [ 842.0, 464.0, 38.0, 24.0 ],
					"presentation" : 1,
					"presentation_rect" : [ 149.0, 38.229166448116302, 54.0, 15.0 ],
					"text" : "typical mass"
				}

			}
, 			{
				"box" : 				{
					"fontsize" : 8.0,
					"format" : 6,
					"id" : "obj-15",
					"maxclass" : "flonum",
					"maximum" : 1.0,
					"minimum" : 0.0,
					"numinlets" : 1,
					"numoutlets" : 2,
					"outlettype" : [ "", "bang" ],
					"parameter_enable" : 1,
					"patching_rect" : [ 843.0, 502.526752233505249, 40.0, 17.0 ],
					"presentation" : 1,
					"presentation_rect" : [ 224.251748234033585, 37.229166448116302, 41.608392030000687, 17.0 ],
					"saved_attribute_attributes" : 					{
						"valueof" : 						{
							"parameter_initial" : [ 0.15 ],
							"parameter_initial_enable" : 1,
							"parameter_longname" : "number[2]",
							"parameter_mmax" : 1.0,
							"parameter_modmode" : 3,
							"parameter_shortname" : "number[2]",
							"parameter_type" : 0
						}

					}
,
					"varname" : "number[1]"
				}

			}
, 			{
				"box" : 				{
					"fontsize" : 8.0,
					"id" : "obj-9",
					"linecount" : 2,
					"maxclass" : "comment",
					"numinlets" : 1,
					"numoutlets" : 0,
					"patching_rect" : [ 782.0, 463.965681314468384, 38.0, 24.0 ],
					"presentation" : 1,
					"presentation_rect" : [ 149.0, 19.229166448116302, 57.0, 15.0 ],
					"text" : "typical filter"
				}

			}
, 			{
				"box" : 				{
					"id" : "obj-8",
					"maxclass" : "toggle",
					"numinlets" : 1,
					"numoutlets" : 1,
					"outlettype" : [ "int" ],
					"parameter_enable" : 1,
					"patching_rect" : [ 787.0, 501.526752233505249, 24.0, 24.0 ],
					"presentation" : 1,
					"presentation_rect" : [ 224.251748234033585, 18.729166209697723, 16.000000476837158, 16.000000476837158 ],
					"saved_attribute_attributes" : 					{
						"valueof" : 						{
							"parameter_enum" : [ "off", "on" ],
							"parameter_initial" : [ 1 ],
							"parameter_initial_enable" : 1,
							"parameter_longname" : "toggle",
							"parameter_mmax" : 1,
							"parameter_modmode" : 0,
							"parameter_shortname" : "toggle",
							"parameter_type" : 2
						}

					}
,
					"varname" : "toggle"
				}

			}
, 			{
				"box" : 				{
					"id" : "obj-2",
					"maxclass" : "newobj",
					"numinlets" : 2,
					"numoutlets" : 1,
					"outlettype" : [ "int" ],
					"patching_rect" : [ 599.350643634796143, 319.48051643371582, 33.0, 22.0 ],
					"text" : "== 0"
				}

			}
, 			{
				"box" : 				{
					"id" : "obj-11",
					"maxclass" : "newobj",
					"numinlets" : 1,
					"numoutlets" : 1,
					"outlettype" : [ "" ],
					"patching_rect" : [ 377.0, 415.740486621856689, 70.0, 22.0 ],
					"text" : "loadmess 3"
				}

			}
, 			{
				"box" : 				{
					"id" : "obj-10",
					"maxclass" : "newobj",
					"numinlets" : 1,
					"numoutlets" : 1,
					"outlettype" : [ "bang" ],
					"patching_rect" : [ 480.931334972381592, 415.740486621856689, 58.0, 22.0 ],
					"text" : "loadbang"
				}

			}
, 			{
				"box" : 				{
					"id" : "obj-7",
					"maxclass" : "newobj",
					"numinlets" : 1,
					"numoutlets" : 0,
					"patching_rect" : [ 249.88550066947937, 94.488193988800049, 192.0, 22.0 ],
					"text" : "print #0-VAMPNET_UI_ERROR"
				}

			}
, 			{
				"box" : 				{
					"id" : "obj-6",
					"maxclass" : "newobj",
					"numinlets" : 4,
					"numoutlets" : 4,
					"outlettype" : [ "", "", "", "" ],
					"patching_rect" : [ 56.666805624961853, 56.64739465713501, 208.0, 22.0 ],
					"text" : "route queryid audiofile looplength_ms"
				}

			}
, 			{
				"box" : 				{
					"id" : "obj-5",
					"maxclass" : "comment",
					"numinlets" : 1,
					"numoutlets" : 0,
					"patching_rect" : [ 248.091620206832886, 583.206147193908691, 396.183233499526978, 20.0 ],
					"text" : "query id --- audiofile ---- model_choice --- periodic --- drop --- seed "
				}

			}
, 			{
				"box" : 				{
					"activedialcolor" : [ 0.6, 0.6, 0.6, 1.0 ],
					"appearance" : 1,
					"fontsize" : 8.0,
					"id" : "obj-349",
					"maxclass" : "live.dial",
					"numinlets" : 1,
					"numoutlets" : 2,
					"outlettype" : [ "", "float" ],
					"parameter_enable" : 1,
					"patching_rect" : [ 489.313010931015015, 469.465681314468384, 40.0, 36.0 ],
					"presentation" : 1,
					"presentation_rect" : [ 107.809941202402115, 8.729166448116302, 30.0, 36.0 ],
					"saved_attribute_attributes" : 					{
						"activedialcolor" : 						{
							"expression" : ""
						}
,
						"textcolor" : 						{
							"expression" : ""
						}
,
						"valueof" : 						{
							"parameter_initial" : [ 0.0 ],
							"parameter_initial_enable" : 1,
							"parameter_linknames" : 1,
							"parameter_longname" : "drop",
							"parameter_mmax" : 1.0,
							"parameter_modmode" : 0,
							"parameter_shortname" : "drop",
							"parameter_type" : 0,
							"parameter_unitstyle" : 1
						}

					}
,
					"textcolor" : [ 0.847058823529412, 0.819607843137255, 0.819607843137255, 1.0 ],
					"varname" : "drop"
				}

			}
, 			{
				"box" : 				{
					"fontname" : "Andale Mono",
					"fontsize" : 8.0,
					"id" : "obj-348",
					"maxclass" : "comment",
					"numinlets" : 1,
					"numoutlets" : 0,
					"patching_rect" : [ 124.0, 342.465681314468384, 74.0, 15.0 ],
					"presentation" : 1,
					"presentation_rect" : [ 6.770833075046539, 5.729166448116302, 51.0, 15.0 ],
					"text" : "model"
				}

			}
, 			{
				"box" : 				{
					"activedialcolor" : [ 0.6, 0.6, 0.6, 1.0 ],
					"appearance" : 1,
					"fontsize" : 8.0,
					"id" : "obj-347",
					"maxclass" : "live.dial",
					"numinlets" : 1,
					"numoutlets" : 2,
					"outlettype" : [ "", "float" ],
					"parameter_enable" : 1,
					"patching_rect" : [ 377.0, 462.465681314468384, 55.0, 36.0 ],
					"presentation" : 1,
					"presentation_rect" : [ 61.770833075046539, 8.729166448116302, 39.0, 36.0 ],
					"saved_attribute_attributes" : 					{
						"activedialcolor" : 						{
							"expression" : ""
						}
,
						"textcolor" : 						{
							"expression" : ""
						}
,
						"valueof" : 						{
							"parameter_enum" : [ "0", "1", "3", "5", "7", "13", "21", "32", "64" ],
							"parameter_initial" : [ 3 ],
							"parameter_initial_enable" : 1,
							"parameter_linknames" : 1,
							"parameter_longname" : "periodic",
							"parameter_mmax" : 128.0,
							"parameter_modmode" : 0,
							"parameter_shortname" : "periodic",
							"parameter_type" : 1,
							"parameter_unitstyle" : 9
						}

					}
,
					"textcolor" : [ 0.847058823529412, 0.819607843137255, 0.819607843137255, 1.0 ],
					"varname" : "periodic"
				}

			}
, 			{
				"box" : 				{
					"fontsize" : 8.0,
					"id" : "obj-346",
					"items" : [ "default", ",", "supermetroid", ",", "percussion", ",", "machines", ",", "choir", ",", "n64", ",", "opera", ",", "orchestral", ",", "sample-instrument", ",", "xeno-canto", ",", "march-31", ",", "saxophone", ",", "sax-new", ",", "sax-sep", ",", "lazaro-ros", ",", "lazaro-ros-sep" ],
					"maxclass" : "umenu",
					"numinlets" : 1,
					"numoutlets" : 3,
					"outlettype" : [ "int", "", "" ],
					"parameter_enable" : 0,
					"patching_rect" : [ 169.0, 364.465681314468384, 100.0, 17.0 ],
					"presentation" : 1,
					"presentation_rect" : [ 6.88541653752327, 18.229166448116302, 50.770833075046539, 17.0 ]
				}

			}
, 			{
				"box" : 				{
					"id" : "obj-3",
					"maxclass" : "newobj",
					"numinlets" : 1,
					"numoutlets" : 1,
					"outlettype" : [ "" ],
					"patching_rect" : [ 130.057793855667114, 602.0, 89.0, 22.0 ],
					"text" : "prepend to-text"
				}

			}
, 			{
				"box" : 				{
					"id" : "obj-1",
					"maxclass" : "newobj",
					"numinlets" : 1,
					"numoutlets" : 1,
					"outlettype" : [ "" ],
					"patching_rect" : [ 50.0, 602.0, 75.0, 22.0 ],
					"text" : "prepend osc"
				}

			}
, 			{
				"box" : 				{
					"id" : "obj-367",
					"maxclass" : "newobj",
					"numinlets" : 1,
					"numoutlets" : 2,
					"outlettype" : [ "int", "bang" ],
					"patching_rect" : [ 56.666805624961853, 137.397974371910095, 29.5, 22.0 ],
					"text" : "t i b"
				}

			}
, 			{
				"box" : 				{
					"id" : "obj-366",
					"maxclass" : "newobj",
					"numinlets" : 1,
					"numoutlets" : 1,
					"outlettype" : [ "" ],
					"patching_rect" : [ 599.350643634796143, 252.597400188446045, 70.0, 22.0 ],
					"text" : "loadmess 0"
				}

			}
, 			{
				"box" : 				{
					"fontsize" : 8.0,
					"id" : "obj-365",
					"maxclass" : "comment",
					"numinlets" : 1,
					"numoutlets" : 0,
					"patching_rect" : [ 626.62337064743042, 285.714282989501953, 61.0, 15.0 ],
					"presentation" : 1,
					"presentation_rect" : [ 103.770833075046539, 50.45833146572113, 26.729166924953461, 15.0 ],
					"text" : "lock"
				}

			}
, 			{
				"box" : 				{
					"id" : "obj-362",
					"maxclass" : "toggle",
					"numinlets" : 1,
					"numoutlets" : 1,
					"outlettype" : [ "int" ],
					"parameter_enable" : 0,
					"patching_rect" : [ 599.350643634796143, 283.116880416870117, 24.0, 24.0 ],
					"presentation" : 1,
					"presentation_rect" : [ 122.310760617256165, 50.59761106967926, 14.61988240480423, 14.61988240480423 ]
				}

			}
, 			{
				"box" : 				{
					"color" : [ 0.3, 0.9, 0.1, 1.0 ],
					"id" : "obj-262",
					"maxclass" : "newobj",
					"numinlets" : 1,
					"numoutlets" : 1,
					"outlettype" : [ "" ],
					"patching_rect" : [ 169.0, 331.465681314468384, 70.0, 22.0 ],
					"text" : "loadmess 0"
				}

			}
, 			{
				"box" : 				{
					"id" : "obj-43",
					"maxclass" : "newobj",
					"numinlets" : 1,
					"numoutlets" : 2,
					"outlettype" : [ "", "" ],
					"patching_rect" : [ 208.0, 398.465681314468384, 31.0, 22.0 ],
					"text" : "t s s"
				}

			}
, 			{
				"box" : 				{
					"id" : "obj-274",
					"maxclass" : "newobj",
					"numinlets" : 2,
					"numoutlets" : 1,
					"outlettype" : [ "" ],
					"patching_rect" : [ 601.526759147644043, 376.335903882980347, 32.0, 22.0 ],
					"text" : "gate"
				}

			}
, 			{
				"box" : 				{
					"id" : "obj-273",
					"maxclass" : "newobj",
					"numinlets" : 2,
					"numoutlets" : 1,
					"outlettype" : [ "" ],
					"patching_rect" : [ 601.526759147644043, 443.511481046676636, 86.0, 22.0 ],
					"text" : "random 32768"
				}

			}
, 			{
				"box" : 				{
					"id" : "obj-272",
					"maxclass" : "button",
					"numinlets" : 1,
					"numoutlets" : 1,
					"outlettype" : [ "bang" ],
					"parameter_enable" : 0,
					"patching_rect" : [ 601.526759147644043, 413.740486621856689, 24.0, 24.0 ],
					"presentation" : 1,
					"presentation_rect" : [ 29.0, 50.380436055362225, 15.103658214211464, 15.103658214211464 ]
				}

			}
, 			{
				"box" : 				{
					"fontsize" : 7.0,
					"id" : "obj-270",
					"maxclass" : "number",
					"numinlets" : 1,
					"numoutlets" : 2,
					"outlettype" : [ "", "bang" ],
					"parameter_enable" : 0,
					"patching_rect" : [ 598.473323822021484, 502.290111064910889, 44.0, 16.0 ],
					"presentation" : 1,
					"presentation_rect" : [ 47.770833075046539, 49.932265162467957, 51.0, 16.0 ]
				}

			}
, 			{
				"box" : 				{
					"color" : [ 0.3, 0.9, 0.1, 1.0 ],
					"id" : "obj-200",
					"maxclass" : "newobj",
					"numinlets" : 1,
					"numoutlets" : 1,
					"outlettype" : [ "" ],
					"patching_rect" : [ 672.51913046836853, 473.282475471496582, 70.0, 22.0 ],
					"text" : "loadmess 9"
				}

			}
, 			{
				"box" : 				{
					"fontsize" : 8.0,
					"id" : "obj-206",
					"maxclass" : "comment",
					"numinlets" : 1,
					"numoutlets" : 0,
					"patching_rect" : [ 659.542030334472656, 501.526752233505249, 39.0, 15.0 ],
					"presentation" : 1,
					"presentation_rect" : [ 6.320590555667877, 50.432265162467957, 32.0, 15.0 ],
					"text" : "seed"
				}

			}
, 			{
				"box" : 				{
					"color" : [ 0.2, 0.0, 0.8, 1.0 ],
					"id" : "obj-258",
					"maxclass" : "newobj",
					"numinlets" : 0,
					"numoutlets" : 1,
					"outlettype" : [ "" ],
					"patching_rect" : [ 598.473323822021484, 473.282475471496582, 73.0, 22.0 ],
					"text" : "r #0-seed"
				}

			}
, 			{
				"box" : 				{
					"id" : "obj-313",
					"maxclass" : "newobj",
					"numinlets" : 1,
					"numoutlets" : 1,
					"outlettype" : [ "" ],
					"patching_rect" : [ 221.0, 431.465681314468384, 75.0, 22.0 ],
					"text" : "prepend text"
				}

			}
, 			{
				"box" : 				{
					"id" : "obj-168",
					"maxclass" : "newobj",
					"numinlets" : 18,
					"numoutlets" : 1,
					"outlettype" : [ "" ],
					"patching_rect" : [ 50.0, 545.0, 453.0, 22.0 ],
					"text" : "pack 0 vampnet example.wav default 7 0.1 12345 10000. 1 0.15 64 4 0 36 1. 0. 0. 1"
				}

			}
, 			{
				"box" : 				{
					"id" : "obj-157",
					"maxclass" : "comment",
					"numinlets" : 1,
					"numoutlets" : 0,
					"patching_rect" : [ -8.670519590377808, 101.0, 62.0, 20.0 ],
					"text" : "query id"
				}

			}
, 			{
				"box" : 				{
					"id" : "obj-133",
					"maxclass" : "number",
					"numinlets" : 1,
					"numoutlets" : 2,
					"outlettype" : [ "", "bang" ],
					"parameter_enable" : 0,
					"patching_rect" : [ 56.666805624961853, 100.0, 50.0, 22.0 ]
				}

			}
, 			{
				"box" : 				{
					"comment" : "",
					"id" : "obj-378",
					"index" : 1,
					"maxclass" : "inlet",
					"numinlets" : 0,
					"numoutlets" : 1,
					"outlettype" : [ "" ],
					"patching_rect" : [ 56.666805624961853, 5.0, 30.0, 30.0 ]
				}

			}
, 			{
				"box" : 				{
					"comment" : "",
					"id" : "obj-380",
					"index" : 1,
					"maxclass" : "outlet",
					"numinlets" : 1,
					"numoutlets" : 0,
					"patching_rect" : [ 50.0, 674.0, 30.0, 30.0 ]
				}

			}
 ],
		"lines" : [ 			{
				"patchline" : 				{
					"destination" : [ "obj-380", 0 ],
					"source" : [ "obj-1", 0 ]
				}

			}
, 			{
				"patchline" : 				{
					"destination" : [ "obj-349", 0 ],
					"source" : [ "obj-10", 0 ]
				}

			}
, 			{
				"patchline" : 				{
					"destination" : [ "obj-347", 0 ],
					"source" : [ "obj-11", 0 ]
				}

			}
, 			{
				"patchline" : 				{
					"destination" : [ "obj-168", 16 ],
					"source" : [ "obj-12", 0 ]
				}

			}
, 			{
				"patchline" : 				{
					"destination" : [ "obj-168", 17 ],
					"source" : [ "obj-13", 0 ]
				}

			}
, 			{
				"patchline" : 				{
					"destination" : [ "obj-367", 0 ],
					"source" : [ "obj-133", 0 ]
				}

			}
, 			{
				"patchline" : 				{
					"destination" : [ "obj-168", 9 ],
					"source" : [ "obj-15", 0 ]
				}

			}
, 			{
				"patchline" : 				{
					"destination" : [ "obj-1", 0 ],
					"source" : [ "obj-168", 0 ]
				}

			}
, 			{
				"patchline" : 				{
					"destination" : [ "obj-168", 10 ],
					"source" : [ "obj-19", 0 ]
				}

			}
, 			{
				"patchline" : 				{
					"destination" : [ "obj-274", 0 ],
					"source" : [ "obj-2", 0 ]
				}

			}
, 			{
				"patchline" : 				{
					"destination" : [ "obj-168", 11 ],
					"source" : [ "obj-20", 0 ]
				}

			}
, 			{
				"patchline" : 				{
					"destination" : [ "obj-270", 0 ],
					"source" : [ "obj-200", 0 ]
				}

			}
, 			{
				"patchline" : 				{
					"destination" : [ "obj-12", 0 ],
					"order" : 1,
					"source" : [ "obj-22", 0 ]
				}

			}
, 			{
				"patchline" : 				{
					"destination" : [ "obj-13", 0 ],
					"order" : 0,
					"source" : [ "obj-22", 0 ]
				}

			}
, 			{
				"patchline" : 				{
					"destination" : [ "obj-15", 0 ],
					"order" : 8,
					"source" : [ "obj-22", 0 ]
				}

			}
, 			{
				"patchline" : 				{
					"destination" : [ "obj-19", 0 ],
					"order" : 7,
					"source" : [ "obj-22", 0 ]
				}

			}
, 			{
				"patchline" : 				{
					"destination" : [ "obj-20", 0 ],
					"order" : 6,
					"source" : [ "obj-22", 0 ]
				}

			}
, 			{
				"patchline" : 				{
					"destination" : [ "obj-23", 0 ],
					"order" : 5,
					"source" : [ "obj-22", 0 ]
				}

			}
, 			{
				"patchline" : 				{
					"destination" : [ "obj-26", 0 ],
					"order" : 4,
					"source" : [ "obj-22", 0 ]
				}

			}
, 			{
				"patchline" : 				{
					"destination" : [ "obj-28", 0 ],
					"order" : 3,
					"source" : [ "obj-22", 0 ]
				}

			}
, 			{
				"patchline" : 				{
					"destination" : [ "obj-30", 0 ],
					"order" : 2,
					"source" : [ "obj-22", 0 ]
				}

			}
, 			{
				"patchline" : 				{
					"destination" : [ "obj-8", 0 ],
					"order" : 9,
					"source" : [ "obj-22", 0 ]
				}

			}
, 			{
				"patchline" : 				{
					"destination" : [ "obj-168", 12 ],
					"source" : [ "obj-23", 0 ]
				}

			}
, 			{
				"patchline" : 				{
					"destination" : [ "obj-270", 0 ],
					"source" : [ "obj-258", 0 ]
				}

			}
, 			{
				"patchline" : 				{
					"destination" : [ "obj-168", 13 ],
					"source" : [ "obj-26", 0 ]
				}

			}
, 			{
				"patchline" : 				{
					"destination" : [ "obj-346", 0 ],
					"source" : [ "obj-262", 0 ]
				}

			}
, 			{
				"patchline" : 				{
					"destination" : [ "obj-168", 6 ],
					"source" : [ "obj-270", 0 ]
				}

			}
, 			{
				"patchline" : 				{
					"destination" : [ "obj-273", 0 ],
					"source" : [ "obj-272", 0 ]
				}

			}
, 			{
				"patchline" : 				{
					"destination" : [ "obj-270", 0 ],
					"source" : [ "obj-273", 0 ]
				}

			}
, 			{
				"patchline" : 				{
					"destination" : [ "obj-272", 0 ],
					"source" : [ "obj-274", 0 ]
				}

			}
, 			{
				"patchline" : 				{
					"destination" : [ "obj-168", 14 ],
					"source" : [ "obj-28", 0 ]
				}

			}
, 			{
				"patchline" : 				{
					"destination" : [ "obj-380", 0 ],
					"source" : [ "obj-3", 0 ]
				}

			}
, 			{
				"patchline" : 				{
					"destination" : [ "obj-168", 15 ],
					"source" : [ "obj-30", 0 ]
				}

			}
, 			{
				"patchline" : 				{
					"destination" : [ "obj-3", 0 ],
					"source" : [ "obj-313", 0 ]
				}

			}
, 			{
				"patchline" : 				{
					"destination" : [ "obj-43", 0 ],
					"source" : [ "obj-346", 1 ]
				}

			}
, 			{
				"patchline" : 				{
					"destination" : [ "obj-168", 4 ],
					"source" : [ "obj-347", 0 ]
				}

			}
, 			{
				"patchline" : 				{
					"destination" : [ "obj-168", 5 ],
					"source" : [ "obj-349", 0 ]
				}

			}
, 			{
				"patchline" : 				{
					"destination" : [ "obj-2", 0 ],
					"source" : [ "obj-362", 0 ]
				}

			}
, 			{
				"patchline" : 				{
					"destination" : [ "obj-362", 0 ],
					"source" : [ "obj-366", 0 ]
				}

			}
, 			{
				"patchline" : 				{
					"destination" : [ "obj-168", 0 ],
					"source" : [ "obj-367", 0 ]
				}

			}
, 			{
				"patchline" : 				{
					"destination" : [ "obj-274", 1 ],
					"source" : [ "obj-367", 1 ]
				}

			}
, 			{
				"patchline" : 				{
					"destination" : [ "obj-6", 0 ],
					"source" : [ "obj-378", 0 ]
				}

			}
, 			{
				"patchline" : 				{
					"destination" : [ "obj-168", 3 ],
					"source" : [ "obj-43", 0 ]
				}

			}
, 			{
				"patchline" : 				{
					"destination" : [ "obj-313", 0 ],
					"source" : [ "obj-43", 1 ]
				}

			}
, 			{
				"patchline" : 				{
					"destination" : [ "obj-133", 0 ],
					"source" : [ "obj-6", 0 ]
				}

			}
, 			{
				"patchline" : 				{
					"destination" : [ "obj-168", 7 ],
					"source" : [ "obj-6", 2 ]
				}

			}
, 			{
				"patchline" : 				{
					"destination" : [ "obj-168", 2 ],
					"source" : [ "obj-6", 1 ]
				}

			}
, 			{
				"patchline" : 				{
					"destination" : [ "obj-7", 0 ],
					"source" : [ "obj-6", 3 ]
				}

			}
, 			{
				"patchline" : 				{
					"destination" : [ "obj-168", 8 ],
					"source" : [ "obj-8", 0 ]
				}

			}
 ]
	}

}
